<svg xmlns="http://www.w3.org/2000/svg" viewBox="0 0 90 85.57"><defs><style>.cls-1{fill-rule:evenodd;}</style></defs><title>capcitacion</title><g id="Capa_2" data-name="Capa 2"><g id="Capa_1-2" data-name="Capa 1"><path class="cls-1" d="M7.45,67.68C7.4,63.93,0,59.16.06,48.76c0-5.21,5.1-13.87,13.69-15s15.05.8,17.81,6.15,3.09,10,2.84,10.81a12.65,12.65,0,0,1-1.12,2.47s4.31,6.69,4.07,7.74-3.26,1.73-3.26,1.73a3.65,3.65,0,0,0,.25,2.14c.56,1.48-1,3.21-1.41,3.74s.61,2.47.24,3.5-2.15,2.28-4.23,2-4.68-.8-5.6-.93C21.26,78,26.24,85.57,26.24,85.57H0S7.63,74.38,7.45,67.68ZM24.64,14.06c0-6.4,5.83-11.63,13.47-11.63,6.07,0,12.28,5.23,12.28,11.63S45.53,25.72,38.1,25.72a23.83,23.83,0,0,1-4.37-.36l-4.19,2.83V23.81a12.17,12.17,0,0,1-4.91-9.75ZM34,27.82a32.17,32.17,0,0,0,4.13.38c8.77,0,14.67-6.58,14.67-14.25S45.41,0,38.1,0C29.3,0,22.18,6.25,22.18,13.94a13.89,13.89,0,0,0,4.91,10.93v7ZM82.51,67.68c.13-3.75,7.49-8.52,7.42-18.92,0-5.21-5.08-13.87-13.68-15s-15.06.8-17.88,6.15-3,10-2.83,10.81a15.52,15.52,0,0,0,1.18,2.47s-4.37,6.69-4.05,7.74,3.26,1.73,3.26,1.73a3.43,3.43,0,0,1-.31,2.14c-.54,1.48,1,3.21,1.48,3.74S56.41,71,56.84,72s2.14,2.28,4.16,2,4.74-.8,5.66-.93c2,4.85-2.94,12.41-2.94,12.41H90c-.07,0-7.68-11.18-7.49-17.89Z"/></g></g></svg>