<svg xmlns="http://www.w3.org/2000/svg" viewBox="0 0 90 65.71"><title>email</title><g id="Capa_2" data-name="Capa 2"><g id="Capa_1-2" data-name="Capa 1"><polygon points="0 13.85 0 58.34 26.75 36.09 0 13.85"/><path d="M82.9,0H7.1a7.13,7.13,0,0,0-7,5.9L35.46,35.3l5.89,4.9a5.93,5.93,0,0,0,7.28,0l6.19-5.15L89.89,5.9A7.13,7.13,0,0,0,82.9,0Z"/><polygon points="90 58.34 90 13.85 63.25 36.09 90 58.34"/><path d="M53.43,44.26l-4.79,4a5.93,5.93,0,0,1-7.28,0L35.18,43.1l-3.61-3-28.9,24A7.07,7.07,0,0,0,7.1,65.71H82.9a7.06,7.06,0,0,0,4.43-1.56l-28.91-24Z"/></g></g></svg>