<svg xmlns="http://www.w3.org/2000/svg" viewBox="0 0 88.01 64.25"><title>icon-email</title><g id="Capa_2" data-name="Capa 2"><g id="Capa_1-2" data-name="Capa 1"><polygon points="0 13.54 0 57.05 26.16 35.29 0 13.54"/><path d="M81.06,0H6.95A7,7,0,0,0,.1,5.77L34.68,34.52l5.76,4.79a5.8,5.8,0,0,0,7.12,0l6.06-5L87.9,5.77A7,7,0,0,0,81.06,0Z"/><polygon points="88.01 57.05 88.01 13.54 61.85 35.29 88.01 57.05"/><path d="M52.24,43.28l-4.68,3.89a5.8,5.8,0,0,1-7.12,0l-6-5-3.53-2.93L2.61,62.72a6.91,6.91,0,0,0,4.33,1.53H81.06a6.91,6.91,0,0,0,4.33-1.53L57.13,39.22Z"/></g></g></svg>