<svg xmlns="http://www.w3.org/2000/svg" viewBox="0 0 55.63 95.26"><title>icon-recreacion</title><g id="Capa_2" data-name="Capa 2"><g id="Capa_1-2" data-name="Capa 1"><path d="M41.36,0a9.69,9.69,0,0,0-8,4.47,11,11,0,0,0-1.41,8.63l2.61,11.29H48.18L50.8,13.1a11,11,0,0,0-1.41-8.63A9.69,9.69,0,0,0,41.36,0Z"/><path d="M55.54,44.09l0-.4a15.7,15.7,0,0,0-3.26-7.63c-1.43-1.78-4.19-6.27-4.19-6.27H34.14a75.67,75.67,0,0,1-3.7,6.73,16,16,0,0,0-2.85,7.1s-.22,1.73-.22,2.39c0,.37.08.71.1,1.07l.08.81a16.19,16.19,0,0,0,.35,2l7.8,45.35H48.38l7-46c0-.15,0-.31.07-.46l.16-1.69C55.65,46.72,55.62,44.72,55.54,44.09Z"/><path d="M20.09,53.81A20.09,20.09,0,1,0,40.19,73.9,20.09,20.09,0,0,0,20.09,53.81Zm0,12.19a2,2,0,1,1,2-2A2,2,0,0,1,20.09,66Zm1-6.73a2,2,0,1,1,2-2A1.95,1.95,0,0,1,21.14,59.27Zm6.24,3.9a2,2,0,1,1,2-2A2,2,0,0,1,27.37,63.17Z"/></g></g></svg>