<svg xmlns="http://www.w3.org/2000/svg" viewBox="0 0 87.99 87.99"><defs><style>.cls-1{fill-rule:evenodd;}</style></defs><title>icon-social-instangram</title><g id="Capa_2" data-name="Capa 2"><g id="Capa_1-2" data-name="Capa 1"><path class="cls-1" d="M72.37,44A28.38,28.38,0,1,0,44,72.37,28.37,28.37,0,0,0,72.37,44Zm-.54-32.23a4.57,4.57,0,1,0,4.57,4.57,4.56,4.56,0,0,0-4.57-4.57ZM20.8,5.2H67.19a15.64,15.64,0,0,1,15.6,15.6V67.19a15.62,15.62,0,0,1-15.6,15.6H20.8A15.64,15.64,0,0,1,5.2,67.19V20.8A15.65,15.65,0,0,1,20.8,5.2ZM67.19,0H20.8A20.86,20.86,0,0,0,0,20.8V67.19A20.85,20.85,0,0,0,20.8,88H67.19A20.84,20.84,0,0,0,88,67.19V20.8A20.85,20.85,0,0,0,67.19,0ZM21.51,44A22.49,22.49,0,1,1,44,66.48,22.49,22.49,0,0,1,21.51,44Z"/></g></g></svg>