<svg xmlns="http://www.w3.org/2000/svg" viewBox="0 0 89.51 85.1"><defs><style>.cls-1{fill-rule:evenodd;}</style></defs><title>icon-capacitacion</title><g id="Capa_2" data-name="Capa 2"><g id="Capa_1-2" data-name="Capa 1"><path class="cls-1" d="M7.41,67.31C7.35,63.58,0,58.83.06,48.5c0-5.19,5.07-13.79,13.62-14.91s15,.79,17.71,6.12,3.08,9.9,2.82,10.75A12.58,12.58,0,0,1,33.1,52.9s4.28,6.65,4,7.7-3.24,1.72-3.24,1.72a3.63,3.63,0,0,0,.25,2.12c.55,1.47-1,3.19-1.41,3.72s.61,2.46.24,3.48-2.13,2.27-4.2,2-4.65-.8-5.57-.92c-2.07,4.83,2.88,12.34,2.88,12.34H0S7.59,74,7.41,67.31ZM24.5,14c0-6.36,5.8-11.56,13.39-11.56,6,0,12.22,5.2,12.22,11.56s-4.83,11.6-12.22,11.6a23.7,23.7,0,0,1-4.35-.36L29.39,28V23.68A12.11,12.11,0,0,1,24.5,14Zm9.28,13.68A32,32,0,0,0,37.9,28c8.72,0,14.59-6.55,14.59-14.18S45.16,0,37.9,0C29.14,0,22.06,6.22,22.06,13.86a13.82,13.82,0,0,0,4.88,10.87v6.91ZM82.06,67.31c.13-3.73,7.45-8.48,7.38-18.81,0-5.19-5.05-13.79-13.61-14.91s-15,.79-17.79,6.12-3,9.9-2.81,10.75A15.44,15.44,0,0,0,56.4,52.9s-4.35,6.65-4,7.7,3.24,1.72,3.24,1.72a3.42,3.42,0,0,1-.31,2.12c-.54,1.47,1,3.19,1.47,3.72s-.67,2.46-.24,3.48,2.13,2.27,4.14,2,4.71-.8,5.63-.92c2,4.83-2.93,12.34-2.93,12.34H89.51c-.07,0-7.64-11.12-7.45-17.79Z"/></g></g></svg>