<svg xmlns="http://www.w3.org/2000/svg" viewBox="0 0 78.84 89.79"><title>icon-salud</title><g id="Capa_2" data-name="Capa 2"><g id="Capa_1-2" data-name="Capa 1"><path d="M78.83,41.94A12.43,12.43,0,1,0,64.31,54.13V67.18a18.41,18.41,0,1,1-36.81,0l-.07-14.9c4.84-.7,9.57-3.48,13.74-8.36a3,3,0,0,0,.7-2.44c5.47-7.28,8.85-17.15,8.85-24.73,0-11.64-5.24-12.88-13.87-14.89a3.31,3.31,0,1,0-3,4.79,3,3,0,0,0,1.94-.78h.07c8.43,2,10.75,2.47,10.75,10.88,0,6.72-3.17,15.6-8,22.09a3.26,3.26,0,0,0-2.16,1.07C34,42.7,30,46.18,25.4,46.18s-8.56-3.41-11-6.26a3.29,3.29,0,0,0-2.25-1.07C7.33,32.43,4.18,23.47,4.18,16.75c0-8.41,2.23-8.95,10.72-10.88a3.3,3.3,0,0,0,2,.78,3.4,3.4,0,0,0,3.33-3.31A3.36,3.36,0,0,0,16.91,0a3.49,3.49,0,0,0-3,1.86C5.26,3.87,0,5,0,16.75c0,7.64,3.4,17.52,9,24.79A2.93,2.93,0,0,0,9.65,44c4.17,4.79,8.79,7.57,13.67,8.26v14.9a22.59,22.59,0,1,0,45.17,0V54.13A12.35,12.35,0,0,0,78.83,41.94Z"/></g></g></svg>