<svg xmlns="http://www.w3.org/2000/svg" viewBox="0 0 48.46 85.36"><defs><style>.cls-1{fill-rule:evenodd;}</style></defs><title>icon-iphone</title><g id="Capa_2" data-name="Capa 2"><g id="Capa_1-2" data-name="Capa 1"><path class="cls-1" d="M17.83,4.72H31V6.44H17.83Zm11.44,75h0A2.31,2.31,0,0,1,26.92,82H21.53a2.27,2.27,0,0,1-2-2.36V74.32a2.19,2.19,0,0,1,2-2h5.39a2.27,2.27,0,0,1,2.36,2ZM43.74,69.6h-39V10.78h39ZM42.4,0H6.4A6.65,6.65,0,0,0,0,6.44V79.36a6.31,6.31,0,0,0,6.4,6h36a6,6,0,0,0,6.06-6V6.44A6.36,6.36,0,0,0,42.4,0Z"/></g></g></svg>