<svg xmlns="http://www.w3.org/2000/svg" viewBox="0 0 86 86"><title>icon-phone</title><g id="Capa_2" data-name="Capa 2"><g id="Capa_1-2" data-name="Capa 1"><path d="M32.23,30.4a12.91,12.91,0,0,0,2.69-3.87c2.18-5.35,1.19-6.39,1.19-6.39-1.43-3.09-4.5-7.22-8.56-11.28A44.07,44.07,0,0,0,16.27.31,9.25,9.25,0,0,0,7.49,2.55s0,0,0,0h0c-.52.52-1,1-1.45,1.56Z"/><path d="M85.69,69.73c-1.43-3.09-4.5-7.22-8.56-11.28s-8.19-7.12-11.28-8.56c0,0-1-1-6.39,1.19a12.94,12.94,0,0,0-3.87,2.69L81.84,80q.78-.67,1.56-1.45h0v0s0,0,0,0A9.25,9.25,0,0,0,85.69,69.73Z"/><path d="M52.79,57.54a4.36,4.36,0,0,1-3.71,1.58c-4.78,0-11.92-4.28-14.92-7.27-4-4-10.21-15.28-5.7-18.64l.77-.49L3.7,7.18C-.16,13,0,17.68,0,17.68s-.67,21.2,23.23,45.09C45.86,85.4,66.07,86,68.15,86h.25c.63,0,5-.13,10.42-3.7L53.28,56.77C53.11,57,52.95,57.28,52.79,57.54Z"/></g></g></svg>