<svg xmlns="http://www.w3.org/2000/svg" viewBox="0 0 86.46 77.62"><title>icon-chek-ok</title><g id="Capa_2" data-name="Capa 2"><g id="Capa_1-2" data-name="Capa 1"><path d="M35.22,59.65a3,3,0,0,1-2.15-.89l-21-21a3,3,0,1,1,4.3-4.3l18.8,18.8L81.23,4.59a3,3,0,0,1,4.38,4.23l-48.2,49.9a3,3,0,0,1-2.16.93Z"/><path d="M71.07,48.76A33.76,33.76,0,1,1,50.32,7.08a2.51,2.51,0,0,0,2.95-1h0A2.54,2.54,0,0,0,52,2.31,38.81,38.81,0,1,0,75.9,50.22,2.52,2.52,0,0,0,73.47,47h0A2.51,2.51,0,0,0,71.07,48.76Z"/></g></g></svg>