<svg xmlns="http://www.w3.org/2000/svg" viewBox="0 0 89.98 65.96"><defs><style>.cls-1{fill-rule:evenodd;}</style></defs><title>icon-social-youtube</title><g id="Capa_2" data-name="Capa 2"><g id="Capa_1-2" data-name="Capa 1"><path class="cls-1" d="M60,32,35.69,45.1V18.75l11,6ZM89.08,14.23s-.91-6.48-3.62-9.34c-3.39-3.69-7.23-3.76-9-4C63.93,0,45,0,45,0H45S26.13,0,13.55.9c-1.81.23-5.65.3-9,4C1.81,7.75.9,14.23.9,14.23A147.28,147.28,0,0,0,0,29.37v7.15A145.38,145.38,0,0,0,.9,51.65S1.81,58.13,4.52,61c3.39,3.76,7.9,3.61,9.94,4C21.61,65.73,45,66,45,66s18.9-.08,31.47-1c1.73-.23,5.57-.23,9-4,2.71-2.86,3.62-9.34,3.62-9.34A145.38,145.38,0,0,0,90,36.52V29.37a147.28,147.28,0,0,0-.9-15.13Z"/></g></g></svg>