<svg xmlns="http://www.w3.org/2000/svg" viewBox="0 0 84.52 67.54"><defs><style>.cls-1{fill-rule:evenodd;}</style></defs><title>icon-social-twitter</title><g id="Capa_2" data-name="Capa 2"><g id="Capa_1-2" data-name="Capa 1"><path class="cls-1" d="M84.52,8a35.92,35.92,0,0,1-10,2.69A16.93,16.93,0,0,0,82.19,1.2a34.64,34.64,0,0,1-11,4.17A17.41,17.41,0,0,0,41.17,17a17.64,17.64,0,0,0,.5,3.89A49.26,49.26,0,0,1,5.94,3.11a16.94,16.94,0,0,0-2.41,8.56,17.08,17.08,0,0,0,7.71,14.22,17.33,17.33,0,0,1-7.85-2.12V24a16.14,16.14,0,0,0,1.2,6.15A17.27,17.27,0,0,0,17.33,40.67a16.42,16.42,0,0,1-4.6.64,16.87,16.87,0,0,1-3.25-.35,17.42,17.42,0,0,0,16.2,11.88,34.91,34.91,0,0,1-21.5,7.29A41,41,0,0,1,0,59.9a50.13,50.13,0,0,0,26.59,7.64c27.09,0,43.78-18.74,48.17-38.19A47.18,47.18,0,0,0,75.89,19V16.83A36.69,36.69,0,0,0,84.52,8Z"/></g></g></svg>