<svg xmlns="http://www.w3.org/2000/svg" viewBox="0 0 88.38 88.56"><title>icon-direccion</title><g id="Capa_2" data-name="Capa 2"><g id="Capa_1-2" data-name="Capa 1"><path d="M88.38,73.49c0,9.93-22.3,15.07-44.2,15.07S0,83.41,0,73.49c0-8.17,14.31-12.06,22.77-13.62l1,5.53C10,67.95,5.54,71.92,5.54,73.49c0,3.33,14.69,9.45,38.64,9.45s38.54-6.12,38.54-9.45c0-1.67-3.79-5.46-18.19-8.09l1-5.53c15.12,2.81,22.9,7.27,22.9,13.62Zm-44.2,3.33h0s-22.4-35.06-22.4-54.42a22.39,22.39,0,0,1,44.78,0c0,19.09-22.38,54.42-22.38,54.42Zm0-46.94h0a7.44,7.44,0,1,0-7.49-7.49,7.54,7.54,0,0,0,7.49,7.49Z"/></g></g></svg>