<svg xmlns="http://www.w3.org/2000/svg" viewBox="0 0 90 90"><defs><style>.cls-1{fill-rule:evenodd;}</style></defs><title>instagram</title><g id="Capa_2" data-name="Capa 2"><g id="Capa_1-2" data-name="Capa 1"><path class="cls-1" d="M74,45A29,29,0,1,0,45,74,29,29,0,0,0,74,45Zm-.55-33a4.67,4.67,0,1,0,4.67,4.67A4.67,4.67,0,0,0,73.48,12ZM21.27,5.32H68.73a16,16,0,0,1,16,16V68.73a16,16,0,0,1-16,16H21.27a16,16,0,0,1-16-16V21.27a16,16,0,0,1,16-16ZM68.73,0H21.27A21.34,21.34,0,0,0,0,21.27V68.73A21.33,21.33,0,0,0,21.27,90H68.73A21.32,21.32,0,0,0,90,68.73V21.27A21.33,21.33,0,0,0,68.73,0ZM22,45A23,23,0,1,1,45,68,23,23,0,0,1,22,45Z"/></g></g></svg>