<svg xmlns="http://www.w3.org/2000/svg" viewBox="0 0 51.1 90"><defs><style>.cls-1{fill-rule:evenodd;}</style></defs><title>iphone</title><g id="Capa_2" data-name="Capa 2"><g id="Capa_1-2" data-name="Capa 1"><path class="cls-1" d="M18.8,5H32.64V6.79H18.8ZM30.87,84h0a2.44,2.44,0,0,1-2.49,2.49H22.7A2.39,2.39,0,0,1,20.58,84V78.36a2.31,2.31,0,0,1,2.12-2.15h5.68a2.39,2.39,0,0,1,2.49,2.15ZM46.12,73.38H5v-62H46.12ZM44.71,0h-38A7,7,0,0,0,0,6.79V83.67A6.65,6.65,0,0,0,6.74,90h38a6.34,6.34,0,0,0,6.39-6.33V6.79A6.7,6.7,0,0,0,44.71,0Z"/></g></g></svg>