<svg xmlns="http://www.w3.org/2000/svg" viewBox="0 0 591.12 186.3"><defs><style>.cls-1{isolation:isolate;}.cls-2{stroke:#010101;stroke-miterlimit:10;}.cls-3{opacity:0.3;}.cls-4{opacity:0.25;}.cls-5,.cls-6{opacity:0.6;}.cls-6{mix-blend-mode:overlay;}.cls-7{opacity:0.35;}</style></defs><title>LogoUnisaludweb-1</title><g class="cls-1"><g id="Capa_2" data-name="Capa 2"><g id="Capa_1-2" data-name="Capa 1"><path class="cls-2" d="M11.59,1.61V11.9a5.15,5.15,0,0,1-1.56,4,5.72,5.72,0,0,1-4,1.44,5.56,5.56,0,0,1-4-1.44,5.2,5.2,0,0,1-1.54-4V1.61H1.78V11.9A4.27,4.27,0,0,0,3,15.08a4.13,4.13,0,0,0,3,1.18,4.29,4.29,0,0,0,3.11-1.17,4.22,4.22,0,0,0,1.21-3.18V1.61Z"/><path class="cls-2" d="M16.16,5.59l.12,2A4.21,4.21,0,0,1,17.77,6,4.14,4.14,0,0,1,20,5.37a3.55,3.55,0,0,1,2.85,1.14,5.41,5.41,0,0,1,1,3.57v7H22.55v-7a4.17,4.17,0,0,0-.74-2.8,2.69,2.69,0,0,0-2.1-.82,3.41,3.41,0,0,0-2.2.67A3.75,3.75,0,0,0,16.31,9V17.1H15V5.59Z"/><path class="cls-2" d="M28.59,2.29H27.32V.5h1.27Zm0,14.82H27.32V5.59h1.27Z"/><path class="cls-2" d="M31.61,11.44A7.52,7.52,0,0,1,32.78,7,3.75,3.75,0,0,1,36,5.37a4,4,0,0,1,3.54,1.92V.5h1.28V17.1h-1l-.18-1.67a4,4,0,0,1-1.49,1.4,4.41,4.41,0,0,1-2.13.49,3.83,3.83,0,0,1-3.23-1.54,6.67,6.67,0,0,1-1.17-4.12Zm1.28.22A5.84,5.84,0,0,0,33.72,15a2.84,2.84,0,0,0,2.52,1.23,3.62,3.62,0,0,0,2.05-.55,3.66,3.66,0,0,0,1.28-1.52V8.7a4.08,4.08,0,0,0-1.23-1.6,3.3,3.3,0,0,0-2.08-.62,2.77,2.77,0,0,0-2.53,1.38,6.77,6.77,0,0,0-.85,3.58Z"/><path class="cls-2" d="M51.54,17.1q-.12-.61-.18-1a6.69,6.69,0,0,1-.06-.89,4.67,4.67,0,0,1-1.67,1.55,4.91,4.91,0,0,1-2.47.61,3.62,3.62,0,0,1-2.62-.9A3.24,3.24,0,0,1,43.61,14,2.94,2.94,0,0,1,45,11.48a5.94,5.94,0,0,1,3.51-1H51.3V9.1a2.47,2.47,0,0,0-.78-1.94,3.19,3.19,0,0,0-2.21-.7,3.29,3.29,0,0,0-2.11.64,2,2,0,0,0-.8,1.61H44.21l0-.06A2.73,2.73,0,0,1,45.3,6.36a4.62,4.62,0,0,1,3.07-1,4.57,4.57,0,0,1,3,1,3.43,3.43,0,0,1,1.15,2.78v5.66A9.83,9.83,0,0,0,52.64,16a7.41,7.41,0,0,0,.23,1.14Zm-4.24-.9a4.57,4.57,0,0,0,2.54-.7,3.48,3.48,0,0,0,1.46-1.79v-2.2H48.46a4.23,4.23,0,0,0-2.57.74,2.16,2.16,0,0,0-1,1.78,2,2,0,0,0,.64,1.58A2.51,2.51,0,0,0,47.3,16.2Z"/><path class="cls-2" d="M55.46,11.44A7.52,7.52,0,0,1,56.63,7a3.75,3.75,0,0,1,3.25-1.66,4,4,0,0,1,3.54,1.92V.5H64.7V17.1h-1l-.18-1.67A4,4,0,0,1,62,16.84a4.41,4.41,0,0,1-2.13.49,3.83,3.83,0,0,1-3.23-1.54,6.67,6.67,0,0,1-1.17-4.12Zm1.28.22A5.84,5.84,0,0,0,57.58,15a2.84,2.84,0,0,0,2.52,1.23,3.62,3.62,0,0,0,2.05-.55,3.66,3.66,0,0,0,1.28-1.52V8.7a4.08,4.08,0,0,0-1.23-1.6,3.3,3.3,0,0,0-2.08-.62,2.77,2.77,0,0,0-2.53,1.38,6.77,6.77,0,0,0-.85,3.58Z"/><path class="cls-2" d="M72.9,11.44A7.52,7.52,0,0,1,74.06,7a3.75,3.75,0,0,1,3.25-1.66,4,4,0,0,1,3.54,1.92V.5h1.28V17.1h-1l-.18-1.67a4,4,0,0,1-1.49,1.4,4.41,4.41,0,0,1-2.13.49,3.83,3.83,0,0,1-3.23-1.54,6.67,6.67,0,0,1-1.17-4.12Zm1.28.22A5.84,5.84,0,0,0,75,15a2.84,2.84,0,0,0,2.52,1.23,3.62,3.62,0,0,0,2.05-.55,3.66,3.66,0,0,0,1.28-1.52V8.7a4.08,4.08,0,0,0-1.23-1.6,3.3,3.3,0,0,0-2.08-.62A2.77,2.77,0,0,0,75,7.86a6.77,6.77,0,0,0-.85,3.58Z"/><path class="cls-2" d="M89.91,17.33a4.61,4.61,0,0,1-3.63-1.58,5.91,5.91,0,0,1-1.39-4.06V11.1A6,6,0,0,1,86.29,7a4.45,4.45,0,0,1,3.5-1.62A4,4,0,0,1,93,6.72a5.41,5.41,0,0,1,1.14,3.62v1h-8v.35a5.21,5.21,0,0,0,1,3.27,3.27,3.27,0,0,0,2.75,1.3,5.28,5.28,0,0,0,1.94-.35A4.22,4.22,0,0,0,93.31,15l.54.87a4.71,4.71,0,0,1-1.59,1.06A6,6,0,0,1,89.91,17.33ZM89.79,6.46a3.1,3.1,0,0,0-2.42,1.05,4.54,4.54,0,0,0-1.11,2.67l0,.06h6.6V10a3.89,3.89,0,0,0-.8-2.53A2.79,2.79,0,0,0,89.79,6.46Z"/><path class="cls-2" d="M111.09,13.34a2.44,2.44,0,0,0-.95-2,9.67,9.67,0,0,0-3.21-1.46,10.76,10.76,0,0,1-3.77-1.7,3.33,3.33,0,0,1-1.29-2.76,3.57,3.57,0,0,1,1.45-2.92A5.78,5.78,0,0,1,107,1.38a5.46,5.46,0,0,1,3.8,1.29A4.1,4.1,0,0,1,112.19,6l0,.06H111a3.29,3.29,0,0,0-1.11-2.54,4.1,4.1,0,0,0-2.87-1,4.3,4.3,0,0,0-2.84.86,2.64,2.64,0,0,0-1,2.1,2.4,2.4,0,0,0,.93,1.94,9.52,9.52,0,0,0,3.28,1.42,10.73,10.73,0,0,1,3.74,1.76,3.38,3.38,0,0,1,1.29,2.77,3.44,3.44,0,0,1-1.51,2.91,6.26,6.26,0,0,1-3.79,1.1,6.89,6.89,0,0,1-4-1.17,3.74,3.74,0,0,1-1.65-3.4l0-.06h1.18A3,3,0,0,0,104,15.37a5.54,5.54,0,0,0,3.09.88,4.8,4.8,0,0,0,2.9-.81A2.49,2.49,0,0,0,111.09,13.34Z"/><path class="cls-2" d="M119.58,17.33A4.61,4.61,0,0,1,116,15.75a5.91,5.91,0,0,1-1.39-4.06V11.1A6,6,0,0,1,116,7a4.45,4.45,0,0,1,3.5-1.62,4,4,0,0,1,3.24,1.35,5.41,5.41,0,0,1,1.14,3.62v1h-8v.35a5.21,5.21,0,0,0,1,3.27,3.27,3.27,0,0,0,2.75,1.3,5.28,5.28,0,0,0,1.94-.35A4.22,4.22,0,0,0,123,15l.54.87a4.71,4.71,0,0,1-1.59,1.06A6,6,0,0,1,119.58,17.33Zm-.12-10.87A3.1,3.1,0,0,0,117,7.51a4.54,4.54,0,0,0-1.11,2.67l0,.06h6.6V10a3.89,3.89,0,0,0-.8-2.53A2.79,2.79,0,0,0,119.46,6.46Z"/><path class="cls-2" d="M126,11.44A7.52,7.52,0,0,1,127.13,7a3.75,3.75,0,0,1,3.25-1.66,4.15,4.15,0,0,1,2.13.53A4.21,4.21,0,0,1,134,7.4l.18-1.81h1V17.17a4.55,4.55,0,0,1-1.21,3.4,4.7,4.7,0,0,1-3.44,1.19,8.48,8.48,0,0,1-1.77-.2,6.94,6.94,0,0,1-1.64-.55l.24-1.07a6.61,6.61,0,0,0,1.47.52,7.64,7.64,0,0,0,1.68.18,3.38,3.38,0,0,0,2.54-.87,3.57,3.57,0,0,0,.84-2.58V15.54a4,4,0,0,1-1.48,1.33,4.48,4.48,0,0,1-2.08.46,3.82,3.82,0,0,1-3.23-1.54A6.67,6.67,0,0,1,126,11.66Zm1.28.22a5.81,5.81,0,0,0,.84,3.32,2.85,2.85,0,0,0,2.52,1.23,3.6,3.6,0,0,0,2-.55,3.66,3.66,0,0,0,1.28-1.51V8.67a4,4,0,0,0-1.24-1.58,3.3,3.3,0,0,0-2.06-.61,2.79,2.79,0,0,0-2.53,1.38,6.74,6.74,0,0,0-.85,3.58Z"/><path class="cls-2" d="M146.09,15.23a4,4,0,0,1-1.48,1.55,4.31,4.31,0,0,1-2.21.54,3.52,3.52,0,0,1-2.85-1.23,5.9,5.9,0,0,1-1-3.83V5.59h1.28v6.69a5,5,0,0,0,.72,3,2.44,2.44,0,0,0,2,.92,3.73,3.73,0,0,0,2.29-.64,3.42,3.42,0,0,0,1.21-1.76V5.59h1.28V17.1H146.2Z"/><path class="cls-2" d="M155.95,6.68l-.9-.06a2.89,2.89,0,0,0-2,.68A3.73,3.73,0,0,0,152,9.15v8h-1.28V5.59h1.12L152,7.5v.13A4.14,4.14,0,0,1,153.31,6a3.37,3.37,0,0,1,2-.6,2.61,2.61,0,0,1,.45,0l.35.08Z"/><path class="cls-2" d="M159.56,2.29h-1.27V.5h1.27Zm0,14.82h-1.27V5.59h1.27Z"/><path class="cls-2" d="M162.58,11.44A7.52,7.52,0,0,1,163.75,7,3.75,3.75,0,0,1,167,5.37a4,4,0,0,1,3.54,1.92V.5h1.28V17.1h-1l-.18-1.67a4,4,0,0,1-1.49,1.4,4.41,4.41,0,0,1-2.13.49,3.83,3.83,0,0,1-3.23-1.54,6.66,6.66,0,0,1-1.17-4.12Zm1.28.22a5.84,5.84,0,0,0,.84,3.32,2.83,2.83,0,0,0,2.52,1.23,3.62,3.62,0,0,0,2.05-.55,3.66,3.66,0,0,0,1.28-1.52V8.7a4.08,4.08,0,0,0-1.23-1.6,3.3,3.3,0,0,0-2.08-.62,2.77,2.77,0,0,0-2.53,1.38,6.77,6.77,0,0,0-.85,3.58Z"/><path class="cls-2" d="M182.51,17.1q-.12-.61-.18-1a6.72,6.72,0,0,1-.06-.89,4.68,4.68,0,0,1-1.67,1.55,4.91,4.91,0,0,1-2.47.61,3.62,3.62,0,0,1-2.62-.9,3.24,3.24,0,0,1-.93-2.44,2.94,2.94,0,0,1,1.35-2.5,5.94,5.94,0,0,1,3.51-1h2.83V9.1a2.47,2.47,0,0,0-.78-1.94,3.19,3.19,0,0,0-2.21-.7,3.29,3.29,0,0,0-2.11.64,2,2,0,0,0-.8,1.61h-1.18l0-.06a2.73,2.73,0,0,1,1.11-2.28,4.62,4.62,0,0,1,3.07-1,4.57,4.57,0,0,1,3,1,3.43,3.43,0,0,1,1.15,2.78v5.66a9.91,9.91,0,0,0,.07,1.18,7.44,7.44,0,0,0,.23,1.14Zm-4.24-.9a4.57,4.57,0,0,0,2.54-.7,3.48,3.48,0,0,0,1.46-1.79v-2.2h-2.84a4.23,4.23,0,0,0-2.56.74,2.16,2.16,0,0,0-1,1.78,2,2,0,0,0,.64,1.58A2.51,2.51,0,0,0,178.27,16.2Z"/><path class="cls-2" d="M186.43,11.44A7.52,7.52,0,0,1,187.6,7a3.75,3.75,0,0,1,3.25-1.66,4,4,0,0,1,3.54,1.92V.5h1.28V17.1h-1l-.18-1.67a4,4,0,0,1-1.49,1.4,4.41,4.41,0,0,1-2.13.49,3.83,3.83,0,0,1-3.23-1.54,6.66,6.66,0,0,1-1.17-4.12Zm1.28.22a5.84,5.84,0,0,0,.84,3.32,2.84,2.84,0,0,0,2.52,1.23,3.62,3.62,0,0,0,2.05-.55,3.66,3.66,0,0,0,1.28-1.52V8.7a4.08,4.08,0,0,0-1.23-1.6,3.3,3.3,0,0,0-2.08-.62,2.77,2.77,0,0,0-2.53,1.38,6.77,6.77,0,0,0-.85,3.58Z"/><path class="cls-2" d="M207.63,14l.4,1.37h.06l3.48-9.77H213l-5,13.36a6.57,6.57,0,0,1-1.16,2,2.62,2.62,0,0,1-2.09.82,3.79,3.79,0,0,1-.54,0,2.72,2.72,0,0,1-.47-.1l.15-1.06.41,0,.41,0A1.66,1.66,0,0,0,206,20a5.16,5.16,0,0,0,.85-1.52l.61-1.55L203.06,5.59h1.42Z"/><path class="cls-2" d="M229.37,13.34a2.44,2.44,0,0,0-.95-2,9.66,9.66,0,0,0-3.21-1.46,10.76,10.76,0,0,1-3.77-1.7,3.33,3.33,0,0,1-1.29-2.76,3.56,3.56,0,0,1,1.45-2.92,5.77,5.77,0,0,1,3.69-1.14,5.46,5.46,0,0,1,3.8,1.29A4.1,4.1,0,0,1,230.48,6l0,.06h-1.19a3.29,3.29,0,0,0-1.11-2.54,4.1,4.1,0,0,0-2.87-1,4.3,4.3,0,0,0-2.84.86,2.64,2.64,0,0,0-1,2.1,2.4,2.4,0,0,0,.93,1.94,9.51,9.51,0,0,0,3.28,1.42,10.73,10.73,0,0,1,3.74,1.76,3.38,3.38,0,0,1,1.29,2.77,3.44,3.44,0,0,1-1.51,2.91,6.26,6.26,0,0,1-3.79,1.1,6.89,6.89,0,0,1-4-1.17,3.74,3.74,0,0,1-1.65-3.4l0-.06h1.18a3,3,0,0,0,1.35,2.68,5.54,5.54,0,0,0,3.09.88,4.8,4.8,0,0,0,2.9-.81A2.49,2.49,0,0,0,229.37,13.34Z"/><path class="cls-2" d="M240.78,17.1q-.12-.61-.18-1a6.72,6.72,0,0,1-.06-.89,4.68,4.68,0,0,1-1.67,1.55,4.91,4.91,0,0,1-2.47.61,3.62,3.62,0,0,1-2.62-.9,3.24,3.24,0,0,1-.93-2.44,2.94,2.94,0,0,1,1.35-2.5,5.94,5.94,0,0,1,3.51-1h2.83V9.1a2.47,2.47,0,0,0-.78-1.94,3.19,3.19,0,0,0-2.21-.7,3.29,3.29,0,0,0-2.11.64,2,2,0,0,0-.8,1.61h-1.18l0-.06a2.73,2.73,0,0,1,1.11-2.28,4.62,4.62,0,0,1,3.07-1,4.57,4.57,0,0,1,3,1,3.43,3.43,0,0,1,1.15,2.78v5.66a9.91,9.91,0,0,0,.07,1.18,7.44,7.44,0,0,0,.23,1.14Zm-4.24-.9a4.57,4.57,0,0,0,2.54-.7,3.48,3.48,0,0,0,1.46-1.79v-2.2H237.7a4.23,4.23,0,0,0-2.56.74,2.16,2.16,0,0,0-1,1.78,2,2,0,0,0,.64,1.58A2.51,2.51,0,0,0,236.54,16.2Z"/><path class="cls-2" d="M246.63,17.1h-1.27V.5h1.27Z"/><path class="cls-2" d="M257.69,15.23a4,4,0,0,1-1.48,1.55,4.31,4.31,0,0,1-2.21.54,3.52,3.52,0,0,1-2.85-1.23,5.9,5.9,0,0,1-1-3.83V5.59h1.28v6.69a5,5,0,0,0,.72,3,2.44,2.44,0,0,0,2,.92,3.73,3.73,0,0,0,2.29-.64,3.42,3.42,0,0,0,1.21-1.76V5.59h1.28V17.1H257.8Z"/><path class="cls-2" d="M261.79,11.44A7.52,7.52,0,0,1,263,7a3.75,3.75,0,0,1,3.25-1.66,4,4,0,0,1,3.54,1.92V.5H271V17.1h-1l-.18-1.67a4,4,0,0,1-1.49,1.4,4.41,4.41,0,0,1-2.13.49A3.83,3.83,0,0,1,263,15.79a6.66,6.66,0,0,1-1.17-4.12Zm1.28.22A5.84,5.84,0,0,0,263.9,15a2.83,2.83,0,0,0,2.52,1.23,3.62,3.62,0,0,0,2.05-.55,3.66,3.66,0,0,0,1.28-1.52V8.7a4.08,4.08,0,0,0-1.23-1.6,3.3,3.3,0,0,0-2.08-.62,2.77,2.77,0,0,0-2.53,1.38,6.77,6.77,0,0,0-.85,3.58Z"/><path class="cls-2" d="M281.3,16h8V17.1H280V1.61h1.28Z"/><path class="cls-2" d="M299,17.1q-.12-.61-.18-1a6.72,6.72,0,0,1-.06-.89,4.68,4.68,0,0,1-1.67,1.55,4.91,4.91,0,0,1-2.47.61,3.62,3.62,0,0,1-2.62-.9,3.24,3.24,0,0,1-.93-2.44,2.94,2.94,0,0,1,1.35-2.5,5.94,5.94,0,0,1,3.51-1h2.83V9.1A2.47,2.47,0,0,0,298,7.16a3.19,3.19,0,0,0-2.21-.7,3.29,3.29,0,0,0-2.11.64,2,2,0,0,0-.8,1.61H291.7l0-.06a2.73,2.73,0,0,1,1.11-2.28,4.62,4.62,0,0,1,3.07-1,4.57,4.57,0,0,1,3,1,3.43,3.43,0,0,1,1.15,2.78v5.66a9.91,9.91,0,0,0,.07,1.18,7.44,7.44,0,0,0,.23,1.14Zm-4.24-.9a4.57,4.57,0,0,0,2.54-.7,3.48,3.48,0,0,0,1.46-1.79v-2.2h-2.84a4.23,4.23,0,0,0-2.56.74,2.16,2.16,0,0,0-1,1.78A2,2,0,0,0,293,15.6,2.51,2.51,0,0,0,294.78,16.2Z"/><path class="cls-2" d="M312.73,11.66a6.65,6.65,0,0,1-1.17,4.12,3.83,3.83,0,0,1-3.23,1.54,4.46,4.46,0,0,1-2.18-.51,4,4,0,0,1-1.5-1.44l-.21,1.72h-1V.5h1.28V7.35a4.11,4.11,0,0,1,1.47-1.46,4.16,4.16,0,0,1,2.12-.52A3.76,3.76,0,0,1,311.56,7a7.5,7.5,0,0,1,1.17,4.41Zm-1.29-.22a6.73,6.73,0,0,0-.85-3.58,2.78,2.78,0,0,0-2.52-1.38,3.32,3.32,0,0,0-2.13.64,3.93,3.93,0,0,0-1.21,1.67v5.27a3.4,3.4,0,0,0,3.36,2.16A2.84,2.84,0,0,0,310.6,15a5.81,5.81,0,0,0,.84-3.32Z"/><path class="cls-2" d="M314.87,11.18A6.19,6.19,0,0,1,316.26,7a5,5,0,0,1,7.4,0,6.19,6.19,0,0,1,1.39,4.17v.35a6.2,6.2,0,0,1-1.39,4.18,5,5,0,0,1-7.4,0,6.18,6.18,0,0,1-1.39-4.18Zm1.28.35a5.48,5.48,0,0,0,1,3.36,3.57,3.57,0,0,0,5.61,0,5.47,5.47,0,0,0,1-3.36v-.35a5.44,5.44,0,0,0-1-3.34,3.55,3.55,0,0,0-5.61,0,5.48,5.48,0,0,0-1,3.34Z"/><path class="cls-2" d="M333,6.68l-.9-.06a2.89,2.89,0,0,0-2,.68A3.73,3.73,0,0,0,329,9.15v8h-1.28V5.59h1.12L329,7.5v.13A4.14,4.14,0,0,1,330.33,6a3.37,3.37,0,0,1,2-.6,2.61,2.61,0,0,1,.45,0l.35.08Z"/><path class="cls-2" d="M342.45,17.1q-.12-.61-.18-1a6.72,6.72,0,0,1-.06-.89,4.68,4.68,0,0,1-1.67,1.55,4.91,4.91,0,0,1-2.47.61,3.62,3.62,0,0,1-2.62-.9,3.24,3.24,0,0,1-.93-2.44,2.94,2.94,0,0,1,1.35-2.5,5.94,5.94,0,0,1,3.51-1h2.83V9.1a2.47,2.47,0,0,0-.78-1.94,3.19,3.19,0,0,0-2.21-.7,3.29,3.29,0,0,0-2.11.64,2,2,0,0,0-.8,1.61h-1.18l0-.06a2.73,2.73,0,0,1,1.11-2.28,4.62,4.62,0,0,1,3.07-1,4.57,4.57,0,0,1,3,1,3.43,3.43,0,0,1,1.15,2.78v5.66a9.91,9.91,0,0,0,.07,1.18,7.44,7.44,0,0,0,.23,1.14Zm-4.24-.9a4.57,4.57,0,0,0,2.54-.7,3.48,3.48,0,0,0,1.46-1.79v-2.2h-2.84a4.23,4.23,0,0,0-2.56.74,2.16,2.16,0,0,0-1,1.78,2,2,0,0,0,.64,1.58A2.51,2.51,0,0,0,338.21,16.2Z"/><path class="cls-2" d="M348.3,17.1H347V.5h1.27Z"/><path d="M9.75,31.4h9.5v57.8c0,13.62,6.05,20.5,18,20.64s18-6.88,18-20.64V31.4h19v60c0,23-13.49,35-37,35-23.94,0-37.16-11.28-37.16-35v-50C.12,36.35,4.52,31.4,9.75,31.4Z"/><path d="M88.49,31.4H98.81l38.12,64.26V31.4h18.85V125h-20L97.71,60.71V125H78.86V41.44A9.93,9.93,0,0,1,88.49,31.4Z"/><path d="M160.74,41.44c0-6.61,3.16-10,9.63-10h9.49V125H160.74Z"/><path d="M244.1,75.84a217,217,0,0,0-22.29-6.47c-12.25-2.75-18.17-7-18.17-12.94.41-7.16,5.37-10.87,15.28-11,8.12,0,13.76,2.61,16.93,8,1.79,3.58,4.54,5.5,8.53,5.5h10.73c-1.1-19.4-12.52-29-34.54-29-23.12-.14-34.82,9.5-35.23,29.17,0,12.38,9.08,20.92,27.38,25.6,6.74,1.79,13.07,3.44,18.58,5.09,5.78,1.65,8.53,4.68,8.53,9.22.14,7.71-5.78,11.56-18,11.56s-18.58-5-19.27-14.86H184c.55,20.37,13.07,30.69,37.84,30.69a64.48,64.48,0,0,0,15.49-1.67L252.91,81A23.51,23.51,0,0,0,244.1,75.84Z"/><path d="M324.54,105.87,297.81,31.4H282.4q-7,0-9.08,6.19L257.81,81l-15.62,43.7-.11.29h20.5l6.19-19.13H305L311.16,125h20.23ZM273.87,90l12.8-39.77L299.6,90Z"/><path d="M374.68,109.07c-.18-.45-.34-.91-.51-1.37H348.78V31.33h-9.5a9.93,9.93,0,0,0-9.63,10V105.8l6.85,19.1h52.31A30.25,30.25,0,0,1,374.68,109.07Z"/><path d="M419,136.32l-.62-7.32c9.32-1.8,18.19-7.63,25.76-17.69a4.37,4.37,0,0,0,1.12-4.64c10-14.76,15.81-34.16,15.08-48.94h0A86.5,86.5,0,0,0,452,22.4a4.79,4.79,0,0,0-.3-5l-10.63,6a5.85,5.85,0,0,0,4.06,2.81c6.28,14.28,8.65,32.66,5.94,45.29l.11,0a85.36,85.36,0,0,1-12.37,30.4,5.67,5.67,0,0,0-4.2,2.1c-4.55,5.88-11.75,13-20.62,13.41-9.12.45-17-5.9-22.1-11.3a5.84,5.84,0,0,0-4.65-1.66,87.74,87.74,0,0,1-15-29l.12,0c-3.95-12.3-3.4-30.82,1.44-45.65a5.85,5.85,0,0,0,3.76-3.19L366.38,21.6a4.79,4.79,0,0,0,.19,5,86.49,86.49,0,0,0-4.76,36h0c.73,14.78,8.12,33.8,19.82,47.22a4.79,4.79,0,0,0,1.59,4.76c8.52,9,17.65,14,27.11,14.82l.36,7.34"/><circle cx="372.25" cy="22.98" r="6.77" transform="translate(-0.68 18.39) rotate(-2.83)"/><circle cx="446.36" cy="19.32" r="6.77" transform="translate(-0.41 22.04) rotate(-2.83)"/><path d="M460.34,57.72h0a86.64,86.64,0,0,0-8.11-35,6.77,6.77,0,1,0-10.26,1.67,5.85,5.85,0,0,0,3.21,1.71c6.28,14.28,8.65,32.66,5.94,45.29l.11,0a85.36,85.36,0,0,1-12.37,30.4,5.67,5.67,0,0,0-4.2,2.1c-4.55,5.88-11.75,13-20.62,13.41-9.12.45-17-5.9-22.1-11.3a5.84,5.84,0,0,0-4.65-1.66,87.74,87.74,0,0,1-15-29l.12,0c-3.95-12.3-3.4-30.82,1.44-45.65a7.56,7.56,0,0,0,1.26-.53,6.78,6.78,0,1,0-8.48-2.5,86.51,86.51,0,0,0-4.75,35.94h0c.73,14.78,8.12,33.8,19.82,47.22a4.79,4.79,0,0,0,1.59,4.76c8.52,9,17.65,14,27.11,14.82l.36,7.34,8.33-.41-.62-7.32c9.32-1.8,18.19-7.63,25.76-17.69a4.37,4.37,0,0,0,1.12-4.64C455.29,91.9,461.07,72.5,460.34,57.72Z"/><path d="M532.26,53a123.49,123.49,0,0,1,14.61,33.41,146.17,146.17,0,0,1,4.67,23.43c.38,3.35.57,6.72.72,10.09a12,12,0,0,0,.91,4.5c.5,1.12.88,2.3,1.36,3.56l17.31-6.06c-.69-1.81-1.35-3.54-2-5.28a4.29,4.29,0,0,1-.31-1.34c-.22-11-2.91-21.47-7.1-31.57a103.91,103.91,0,0,0-25.76-37.48,66.29,66.29,0,0,0-24.46-14.71c-1.4-.45-2.83-.83-4.24-1.24a54.35,54.35,0,0,1,9.54,6A67.22,67.22,0,0,1,532.26,53Z"/><path d="M590.19,131.07c-3.49-3-7-5.88-10.56-8.8-.83-.68-1.7-1.31-2.59-2-1.88,4.58-5.75,6.91-9.82,9a81.92,81.92,0,0,1-18.31,6.18,180.84,180.84,0,0,1-23.06,3.77,256.2,256.2,0,0,1-32.57,1.36c-2.85-.07-5.69-.19-8.54-.28h-.42l0,.16c1.68.75,3.36,1.51,5,2.25q12.44,5.47,25.32,9.79c4.5,1.52,9.13,1.52,13.78,1.13,9.83-.83,19.27-3.48,28.66-6.27,7.1-2.11,14.2-4.27,21.21-6.67a71.62,71.62,0,0,0,9.21-4.32,11.4,11.4,0,0,0,2.81-2.24C591.43,133,591.38,132.09,590.19,131.07Z"/><path d="M509.47,138a238.21,238.21,0,0,0,24.31-2.18c9.77-1.42,19.44-3.34,28.65-7,2.17-.87,4.25-2,6.37-2.95l-.14-.27c-4.11,1.43-8.2,2.88-12.32,4.3-3.32,1.14-2.18,1.29-5.08-.66-2.34-1.57-4.64-3.2-7-4.75a2.06,2.06,0,0,0-1.34-.26c-6,1-12.06,2.15-18.13,2.89A188.91,188.91,0,0,1,497,128.43c-6-.15-12-.33-18-.81-11.52-.93-22.91-2.62-33.83-6.64q-1.34-.49-2.64-1.05a48.19,48.19,0,0,1-9.39,7.33,51.35,51.35,0,0,0,11,4.49,135.1,135.1,0,0,0,21.77,4.46A253.83,253.83,0,0,0,509.47,138Z"/><path d="M521.46,47.75a100.4,100.4,0,0,1,14.1,27.33,141,141,0,0,1,6.06,23.66,120.33,120.33,0,0,1,1.77,21.43,1.21,1.21,0,0,0,.3.88c2.45,1.72,4.92,3.41,7.63,5.26a15.29,15.29,0,0,1-.64-1.69,19.07,19.07,0,0,1-.75-3.69,142.06,142.06,0,0,0-7.18-39.74,109.67,109.67,0,0,0-15.12-30.73A55.62,55.62,0,0,0,511,34.74a37.07,37.07,0,0,0-12.81-4.68,1,1,0,0,0-.45,0,38,38,0,0,1,9.14,4A52.17,52.17,0,0,1,521.46,47.75Z"/><path d="M544.16,50.3a110.72,110.72,0,0,1,22.56,37.81c.18.49.33,1,.49,1.48l.21,0c-.49-2.29-.93-4.59-1.47-6.86A76.17,76.17,0,0,0,553.48,55a62.1,62.1,0,0,0-34.79-23.88,4.62,4.62,0,0,0-.63,0c.5.25.77.4,1,.52A77.2,77.2,0,0,1,544.16,50.3Z"/><path d="M574.44,120.17c.59-1.3.59-1.3-.49-2.21-.45-.38-.88-.77-1.32-1.16l-.13.08,1.56,4.07C574.23,120.59,574.34,120.38,574.44,120.17Z"/><polygon class="cls-3" points="140.79 31.4 137.62 31.4 137.62 90.32 140.79 95.66 140.79 31.4"/><g class="cls-4"><path d="M59.63,89.46V31.67H56.47v57.8c0,13-5.42,20-16.14,20.6.42,0,.84,0,1.28,0C53.58,110.24,59.63,103.23,59.63,89.46Z"/><path d="M4.45,91.67v-50c0-5.09,4.4-10,9.63-10H10.92c-5.23,0-9.63,5-9.63,10v50c0,23.67,13.21,35,37.16,35l1.52,0C17.06,126.08,4.45,114.79,4.45,91.67Z"/><polygon points="98.54 60.49 136.99 125.24 140.16 125.24 102.04 60.98 98.54 60.49"/><path d="M92.82,31.67H89.65a9.93,9.93,0,0,0-9.63,10v83.53h3.17V41.71A9.93,9.93,0,0,1,92.82,31.67Z"/><path d="M174.7,31.67h-3.17c-6.47,0-9.63,3.44-9.63,10v83.53h3.17V41.71C165.07,35.11,168.24,31.67,174.7,31.67Z"/><path d="M244.16,99.23c0-4.54-2.75-7.57-8.53-9.22-5.5-1.65-11.83-3.3-18.58-5.09-18.3-4.68-27.38-13.21-27.38-25.6.4-19.08,11.41-28.72,33.16-29.16l-1.1,0c-23.12-.14-34.82,9.5-35.23,29.17,0,12.38,9.08,20.92,27.38,25.6,6.74,1.79,13.07,3.44,18.58,5.09,5.78,1.65,8.53,4.68,8.53,9.22.13,7.34-5.24,11.18-16.34,11.53l1.48,0C238.38,110.79,244.3,106.94,244.16,99.23Z"/><path d="M188.29,95.93h-3.17c.55,20.37,13.07,30.69,37.84,30.69l1.65,0C200.86,126.18,188.83,115.88,188.29,95.93Z"/><polygon points="287.26 50.04 300.76 90.29 303.93 90.29 291 50.52 287.26 50.04"/><path d="M262.14,81.25l15.51-43.39q2.06-6.19,9.08-6.19h-3.17q-7,0-9.08,6.19L259,81.25l-15.62,43.7-.11.29h3.17l.11-.29Z"/><polygon points="306.13 106.12 312.32 125.24 315.49 125.24 309.3 106.12 306.13 106.12"/><path d="M334,41.64a9.93,9.93,0,0,1,9.63-10h-3.17a9.93,9.93,0,0,0-9.63,10v64.43l6.85,19.1h3.17L334,106.07Z"/><path class="cls-5" d="M387.52,114.84a4.79,4.79,0,0,1-1.59-4.76c-11.7-13.42-19.09-32.44-19.82-47.22h0a87.37,87.37,0,0,1,4-33.71,6.79,6.79,0,0,1-2.38-2.23A86.51,86.51,0,0,0,363,62.86h0c.73,14.78,8.12,33.8,19.82,47.22a4.79,4.79,0,0,0,1.59,4.76c8.52,9,17.65,14,27.11,14.82l.36,7.34,3.16-.16-.35-7.18C405.16,128.79,396,123.85,387.52,114.84Z"/><path class="cls-5" d="M446.31,26.42c6.28,14.28,8.65,32.66,5.94,45.29l.11,0A85.36,85.36,0,0,1,440,102.13a5.67,5.67,0,0,0-4.2,2.1c-4.44,5.74-11.41,12.63-20,13.36a18.76,18.76,0,0,0,2.53,0c8.87-.44,16.07-7.53,20.62-13.41a5.67,5.67,0,0,1,4.2-2.1,85.36,85.36,0,0,0,12.37-30.4l-.11,0c2.72-12.62.35-31-5.94-45.29-.24-.05-.47-.11-.69-.18a6.81,6.81,0,0,1-.92.12"/></g><path class="cls-3" d="M548.05,86.53A146.18,146.18,0,0,1,552.73,110c.38,3.35.57,6.72.72,10.09a12,12,0,0,0,.91,4.5c.21.46.39.94.57,1.42l.75.51a15.27,15.27,0,0,1-.64-1.69,19.07,19.07,0,0,1-.75-3.69,142.07,142.07,0,0,0-7.18-39.74A109.67,109.67,0,0,0,532,50.63q-2-2.72-4.15-5.22a79.51,79.51,0,0,1,5.61,7.7A123.49,123.49,0,0,1,548.05,86.53Z"/><path class="cls-3" d="M536.74,75.23a141,141,0,0,1,6.06,23.66,120.34,120.34,0,0,1,1.77,21.43,1.21,1.21,0,0,0,.3.88l.54.38a2,2,0,0,1-.06-.49,125.05,125.05,0,0,0-3.16-29A125.33,125.33,0,0,0,531,60.61,74.73,74.73,0,0,0,520.5,45.2q1.1,1.32,2.15,2.71A100.39,100.39,0,0,1,536.74,75.23Z"/><path d="M418.48,124.31l-.36-7.23-8,.39.37,7.4,0,.34a37.46,37.46,0,0,1-13.7,33.42c-7.12,5.79-16.94,9.06-29.19,9.73l-.41,0c-15.15.75-34-2.45-56.18-9.49-46.94-14.95-94-23.18-136-23.79-41-.6-76.67,5.85-106.31,19.18a20.19,20.19,0,0,1,3.2,7.07c82.1-37.12,191.37-9.52,236.67,4.9,23.19,7.38,42.93,10.67,59.11,9.87q21.35-1.05,34.32-11.6C424,146.65,418.83,127,418.48,124.31Z"/><path d="M71.92,161.34a20.29,20.29,0,1,0,.54,4.66A20.19,20.19,0,0,0,71.92,161.34ZM52.17,180.94A14.94,14.94,0,1,1,67.1,166,15,15,0,0,1,52.17,180.94Z"/><circle cx="52.17" cy="166" r="11.44"/><g class="cls-6"><path d="M19.5,89.28V31.48H10c-5.23,0-9.63,5-9.63,10V89.68H19.51C19.51,89.54,19.5,89.41,19.5,89.28Z"/><path d="M55.55,31.48v57.8c0,.14,0,.27,0,.4h19V31.48Z"/><rect x="137.18" y="31.48" width="18.85" height="58.2"/><path d="M99.06,31.48H88.74a9.93,9.93,0,0,0-9.63,10V89.68H98V60.79L115.1,89.68h18.49Z"/><path d="M170.63,31.48c-6.47,0-9.63,3.44-9.63,10V89.68h19.13V31.48Z"/><path d="M244.35,75.93a217,217,0,0,0-22.29-6.47c-12.25-2.75-18.17-7-18.17-12.94.41-7.16,5.37-10.87,15.28-11,8.12,0,13.76,2.61,16.93,8,1.79,3.58,4.54,5.51,8.53,5.51h10.73c-1.1-19.4-12.52-29-34.54-29-23.12-.14-34.82,9.5-35.23,29.17,0,12.38,9.08,20.92,27.38,25.6,6.54,1.73,12.68,3.34,18.07,4.94h19l3.08-8.61A23.51,23.51,0,0,0,244.35,75.93Z"/><path d="M282.65,31.48q-7,0-9.08,6.19L258.06,81.06,255,89.68h19.28l12.66-39.34,12.8,39.34h19.23l-20.88-58.2Z"/><path d="M339.54,31.41a9.93,9.93,0,0,0-9.63,10V89.68H349V31.41Z"/></g><path d="M507.63,64.43a22.69,22.69,0,0,0-.84-2.7,18.94,18.94,0,0,0-1.21-2.54,15.21,15.21,0,0,0-1.64-2.29A14.27,14.27,0,0,0,501.84,55a13.59,13.59,0,0,0-2.47-1.47c-.43-.22-.89-.38-1.34-.56s-.92-.32-1.39-.43a23.88,23.88,0,0,0-5.82-.76l-3.65,0q-1.73,0-3.46,0c.07,1.08.11,2.16.14,3.24s.07,2.29.07,3.43,0,2.29,0,3.43,0,2.29-.08,3.43-.09,2.29-.16,3.44-.16,2.29-.26,3.43l-.18,1.72L483,75.58c-.07.57-.16,1.14-.24,1.71s-.17,1.14-.28,1.71-.2,1.14-.32,1.7l-.36,1.7c-.12.56-.27,1.13-.4,1.69s-.29,1.12-.45,1.68c-.3,1.12-.67,2.22-1,3.33s-.78,2.19-1.24,3.27c-.22.54-.44,1.08-.7,1.61s-.49,1.06-.76,1.59l-.83,1.55c-.29.51-.61,1-.91,1.52s-.65,1-1,1.48l-.51.73c-.17.24-.37.47-.55.7l-.27.34,8.86-.13,5.95-.09h.71l.74,0,.74,0,.69-.05c.46,0,.93-.07,1.4-.13s.93-.12,1.39-.19a25.34,25.34,0,0,0,2.71-.59,18.5,18.5,0,0,0,2.54-.94c.42-.17.79-.4,1.19-.59s.76-.44,1.11-.7a12.8,12.8,0,0,0,2-1.67,14,14,0,0,0,1.63-2,18.55,18.55,0,0,0,1.27-2.31,25.85,25.85,0,0,0,1.64-5.2c.09-.46.18-.92.26-1.38s.15-.93.2-1.4q.19-1.4.3-2.83c.08-1,.11-1.91.15-2.87l0-.72v-.71c0-.49,0-1,0-1.47,0-1.9-.05-3.84-.21-5.74A33.79,33.79,0,0,0,507.63,64.43Z"/><path d="M541,121a125,125,0,0,0-3.16-29,125.32,125.32,0,0,0-11.23-31.5A69.94,69.94,0,0,0,512.8,41.61a36.68,36.68,0,0,0-16.34-9.33,33.45,33.45,0,0,0-20.21,1.59,56.81,56.81,0,0,0-10,5.06,9.41,9.41,0,0,1-1.69.59,4.58,4.58,0,0,0-.65.31,94.61,94.61,0,0,1,1.77,16.24h0c.78,15.72-5.37,36.37-16,52.07a4.65,4.65,0,0,1-1.2,4.94,64.1,64.1,0,0,1-4.86,5.74,87.53,87.53,0,0,0,19,5.29,195.5,195.5,0,0,0,26.56,2.74,239.48,239.48,0,0,0,26.74-.38A188.85,188.85,0,0,0,541.33,123a1.47,1.47,0,0,0,.27-.08A7.2,7.2,0,0,1,541,121ZM512.52,81.81a40.42,40.42,0,0,1-.74,6.18,26.65,26.65,0,0,1-2,6.1,18.33,18.33,0,0,1-3.86,5.38,16.62,16.62,0,0,1-2.64,2c-.46.31-1,.55-1.44.82s-1,.49-1.5.67a24.64,24.64,0,0,1-6.19,1.56c-.52.06-1,.13-1.56.16s-1,.08-1.57.09l-.79,0H488l-5.95-.09-11.89-.18-3.17,0,2.25-2.25,1.15-1.15a7.07,7.07,0,0,0,.55-.6l.53-.62c.17-.21.36-.41.53-.63l.49-.66c.33-.44.67-.87,1-1.34s.61-.91.9-1.39l.83-1.44c.27-.48.51-1,.76-1.48s.49-1,.71-1.51c.48-1,.87-2.06,1.29-3.09s.76-2.11,1.09-3.19c.17-.53.34-1.07.49-1.61s.32-1.08.46-1.63l.42-1.64c.14-.55.25-1.1.38-1.65s.24-1.1.36-1.66.24-1.11.34-1.66l.31-1.67L482,72c.18-1.12.35-2.24.49-3.37s.27-2.26.39-3.39.21-2.27.28-3.4.14-2.27.17-3.41.05-2.28.06-3.42,0-2.28-.1-3.41v-.19h.19q1.82,0,3.65,0l3.65,0a28.61,28.61,0,0,1,6,.51A18.26,18.26,0,0,1,502.5,54a16.51,16.51,0,0,1,4.64,4.13,21.3,21.3,0,0,1,1.71,2.64,25.12,25.12,0,0,1,1.31,2.84,33.32,33.32,0,0,1,1.65,6,48,48,0,0,1,.7,6.11c0,.53,0,1,.06,1.5v1.54C512.6,79.77,512.57,80.79,512.52,81.81Z"/><path d="M483.52,51.74h.19c0-.06,0-.13,0-.19Z"/><path d="M498.92,99.66c.42-.17.79-.4,1.19-.59s.76-.44,1.11-.7a12.8,12.8,0,0,0,2-1.67,14,14,0,0,0,1.63-2,18.55,18.55,0,0,0,1.27-2.31,25.85,25.85,0,0,0,1.64-5.2c.09-.46.18-.92.26-1.38s.15-.93.2-1.4q.19-1.4.3-2.83c.08-1,.11-1.91.15-2.87l0-.72v-.71c0-.49,0-1,0-1.47,0-1.9-.05-3.84-.21-5.74a33.79,33.79,0,0,0-.89-5.62,22.69,22.69,0,0,0-.84-2.7,18.94,18.94,0,0,0-1.21-2.54,15.21,15.21,0,0,0-1.64-2.29A14.27,14.27,0,0,0,501.84,55a13.59,13.59,0,0,0-2.47-1.47c-.43-.22-.89-.38-1.34-.56s-.92-.32-1.39-.43a23.88,23.88,0,0,0-5.82-.76l-3.65,0q-1.73,0-3.46,0c.07,1.08.11,2.16.14,3.24s.07,2.29.07,3.43,0,2.29,0,3.43,0,2.29-.08,3.43-.09,2.29-.16,3.44-.16,2.29-.26,3.43l-.18,1.72L483,75.58c-.07.57-.16,1.14-.24,1.71s-.17,1.14-.28,1.71-.2,1.14-.32,1.7l-.36,1.7c-.12.56-.27,1.13-.4,1.69s-.29,1.12-.45,1.68c-.3,1.12-.67,2.22-1,3.33s-.78,2.19-1.24,3.27c-.22.54-.44,1.08-.7,1.61s-.49,1.06-.76,1.59l-.83,1.55c-.29.51-.61,1-.91,1.52s-.65,1-1,1.48l-.51.73c-.17.24-.37.47-.55.7l-.27.34,8.86-.13,5.95-.09h.71l.74,0h.3l4.81-.55c.62-.12,1.23-.27,1.83-.43A18.5,18.5,0,0,0,498.92,99.66Z"/><path class="cls-7" d="M494.13,142.68s20.46,8.18,27.38,8.18c0,0,15.07,1.58,43.18-8.18-17.27,3.17-32.7,7.37-46.63,5.54a161.07,161.07,0,0,1-25.45-5.54"/><g class="cls-6"><path d="M477.45,89.59l.49-1.23c.38-1.06.76-2.11,1.09-3.19.17-.53.34-1.07.49-1.61s.32-1.08.46-1.63l.42-1.64c.14-.55.25-1.1.38-1.65s.24-1.1.36-1.66.24-1.11.34-1.66l.31-1.67L482,72c.18-1.12.35-2.24.49-3.37s.27-2.26.39-3.39.21-2.27.28-3.4.14-2.27.17-3.41.05-2.28.06-3.42,0-2.28-.1-3.41v-.19h.19q1.82,0,3.65,0l3.65,0a28.61,28.61,0,0,1,6,.51A18.26,18.26,0,0,1,502.5,54a16.51,16.51,0,0,1,4.64,4.13,21.3,21.3,0,0,1,1.71,2.64,25.12,25.12,0,0,1,1.31,2.84,33.32,33.32,0,0,1,1.65,6,48,48,0,0,1,.7,6.11c0,.53,0,1,.06,1.5v1.54c0,1,0,2-.07,3.07a40.43,40.43,0,0,1-.74,6.18q-.16.8-.37,1.6h25.91q-.9-3.77-2-7.47l0-.06c-.15-.5-.3-1-.45-1.48l-.14-.45c-.14-.44-.28-.87-.42-1.31l-.2-.62-.4-1.2-.25-.72-.4-1.13-.28-.78-.4-1.07-.32-.83-.4-1-.35-.87-.4-1-.38-.9-.4-.94-.42-.94-.4-.9-.46-1-.39-.84-.54-1.1-.36-.72q-.39-.79-.8-1.57l-.12-.23A69.94,69.94,0,0,0,512.8,41.61a36.68,36.68,0,0,0-16.34-9.33,33.45,33.45,0,0,0-20.21,1.59,56.81,56.81,0,0,0-10,5.06,9.41,9.41,0,0,1-1.69.59,4.58,4.58,0,0,0-.65.31,94.6,94.6,0,0,1,1.77,16.24h0c0,.57,0,1.15.05,1.73,0,.18,0,.36,0,.54q0,.63,0,1.27c0,.19,0,.39,0,.59q0,.69,0,1.39c0,.14,0,.29,0,.43q0,.93-.12,1.87l0,.26q-.07.82-.16,1.64l-.06.5q-.09.75-.19,1.51l-.06.44q-.28,2-.66,4l0,.17q-.18.93-.38,1.88l-.06.3q-.21,1-.44,1.94l0,.08q-.52,2.14-1.15,4.3v0q-.31,1.06-.64,2.11l0,.07c-.68,2.16-1.45,4.31-2.29,6.45h18.07Z"/><path d="M536.67,46.22a66.29,66.29,0,0,0-24.46-14.71c-1.4-.45-2.83-.83-4.24-1.24a54.35,54.35,0,0,1,9.54,6A67.22,67.22,0,0,1,532.26,53a123.49,123.49,0,0,1,14.61,33.41q.46,1.61.88,3.22h16.94q-1-3-2.25-5.89A103.91,103.91,0,0,0,536.67,46.22Z"/><path d="M527.63,50.48A55.62,55.62,0,0,0,511,34.74a37.07,37.07,0,0,0-12.81-4.68,1,1,0,0,0-.45,0,38,38,0,0,1,9.14,4,52.17,52.17,0,0,1,14.55,13.64,100.4,100.4,0,0,1,14.1,27.33,139.18,139.18,0,0,1,4.23,14.52h5.45q-1.12-4.22-2.48-8.39A109.67,109.67,0,0,0,527.63,50.48Z"/><path d="M565.94,82.7A76.17,76.17,0,0,0,553.48,55a62.1,62.1,0,0,0-34.79-23.88,4.62,4.62,0,0,0-.63,0c.5.25.77.4,1,.52a77.2,77.2,0,0,1,25,18.7,110.72,110.72,0,0,1,22.56,37.81c.18.49.33,1,.49,1.48l.21,0C566.92,87.28,566.48,85,565.94,82.7Z"/></g></g></g></g></svg>