<svg xmlns="http://www.w3.org/2000/svg" viewBox="0 0 90 90"><title>phone</title><g id="Capa_2" data-name="Capa 2"><g id="Capa_1-2" data-name="Capa 1"><path d="M33.73,31.82a13.51,13.51,0,0,0,2.82-4.05c2.28-5.6,1.24-6.68,1.24-6.68-1.5-3.23-4.71-7.56-9-11.8S20.26,1.83,17,.33a9.68,9.68,0,0,0-9.2,2.34s0,0,0,0h0c-.54.55-1,1.09-1.51,1.64Z"/><path d="M89.67,73c-1.5-3.23-4.71-7.55-9-11.8s-8.57-7.46-11.8-9c0,0-1.08-1-6.68,1.24a13.54,13.54,0,0,0-4.05,2.81L85.64,83.73q.81-.7,1.64-1.51h0v0s.05,0,0,0A9.68,9.68,0,0,0,89.67,73Z"/><path d="M55.25,60.21a4.56,4.56,0,0,1-3.88,1.65c-5,0-12.48-4.48-15.61-7.61-4.17-4.17-10.69-16-6-19.5l.81-.51L3.87,7.51c-4,6.11-3.87,11-3.87,11S-.7,40.69,24.31,65.69C48,89.37,69.14,90,71.31,90h.26c.66,0,5.26-.14,10.91-3.87L55.76,59.41C55.58,59.68,55.41,59.95,55.25,60.21Z"/></g></g></svg>