<svg xmlns="http://www.w3.org/2000/svg" viewBox="0 0 52.65 90"><title>recreacion</title><g id="Capa_2" data-name="Capa 2"><g id="Capa_1-2" data-name="Capa 1"><path d="M39.07,0c-5.19,0-9.4,4.61-9.4,10.31L32.62,23h12.9l2.95-12.73C48.47,4.61,44.26,0,39.07,0Z"/><path d="M52.48,41.65h.17l-.2-.38a14.64,14.64,0,0,0-4.85-9L45.4,28.14H32.26l-2.37,5a14.83,14.83,0,0,0-3.81,8.06l-.21.45H26a15,15,0,0,0-.17,1.81c0,.35.07.67.1,1H25.9l.13.76a15.29,15.29,0,0,0,.33,1.91L33.73,90h12l6.63-43.49c0-.14,0-.29.07-.43l.24-1.6h-.09c0-.34.09-.67.09-1A14.81,14.81,0,0,0,52.48,41.65Z"/><path d="M19,50.84a19,19,0,1,0,19,19A19,19,0,0,0,19,50.84Zm0,11.52a1.84,1.84,0,1,1,1.84-1.84A1.84,1.84,0,0,1,19,62.35ZM20,56a1.84,1.84,0,1,1,1.84-1.84A1.84,1.84,0,0,1,20,56Zm5.89,3.69a1.84,1.84,0,1,1,1.84-1.84A1.84,1.84,0,0,1,25.86,59.68Z"/></g></g></svg>