<svg xmlns="http://www.w3.org/2000/svg" viewBox="0 0 79.02 90"><title>salud</title><g id="Capa_2" data-name="Capa 2"><g id="Capa_1-2" data-name="Capa 1"><path d="M66.56,29.58a12.42,12.42,0,0,0-2.1,24.67V67.34a18.45,18.45,0,1,1-36.9,0l-.07-14.93c4.85-.7,9.59-3.48,13.77-8.38a3,3,0,0,0,.7-2.45c5.49-7.3,8.87-17.19,8.87-24.79,0-11.67-5.25-12.91-13.9-14.93a3.32,3.32,0,1,0-3,4.8,3,3,0,0,0,1.94-.78H36c8.45,2,10.77,2.48,10.77,10.91,0,6.73-3.18,15.64-8.06,22.15A3.26,3.26,0,0,0,36.53,40c-2.47,2.79-6.43,6.27-11.07,6.27S16.88,42.87,14.4,40a3.3,3.3,0,0,0-2.26-1.08c-4.79-6.43-8-15.41-8-22.15,0-8.43,2.24-9,10.75-10.91a3.31,3.31,0,0,0,2,.78,3.4,3.4,0,0,0,3.34-3.32A3.36,3.36,0,0,0,17,0a3.5,3.5,0,0,0-3,1.86C5.27,3.88,0,5.05,0,16.79c0,7.66,3.4,17.56,9,24.85a2.93,2.93,0,0,0,.7,2.48c4.18,4.8,8.82,7.58,13.7,8.28V67.34a22.64,22.64,0,1,0,45.28,0V54.26a12.42,12.42,0,0,0-2.1-24.67Zm0,20.75A8.33,8.33,0,1,1,74.85,42,8.31,8.31,0,0,1,66.56,50.33Z"/><path d="M66.56,35.77h0A6.23,6.23,0,1,1,60.38,42a6.24,6.24,0,0,1,6.18-6.27Z"/></g></g></svg>