<svg xmlns="http://www.w3.org/2000/svg" viewBox="0 0 67.75 89.7"><defs><style>.cls-1{fill-rule:evenodd;}</style></defs><title>seguridad </title><g id="Capa_2" data-name="Capa 2"><g id="Capa_1-2" data-name="Capa 1"><path class="cls-1" d="M33.89,46c22.18,0,27.6-5.43,29.59-10.27.08-.87.12-1.75.12-2.63a29.67,29.67,0,0,0-12.17-24L45.93,16l2.56-10.4a29.55,29.55,0,0,0-5.36-2.34L39.87,29.5,41.25.92A29.8,29.8,0,0,0,26.87.84V29.5L23.79,3.31a29.55,29.55,0,0,0-4.67,2L21,16,16.56,8.92a29.64,29.64,0,0,0-12.1,28.2C7.48,41.34,15.08,46,33.89,46ZM33.8,36.8a3.64,3.64,0,1,1-3.64,3.64A3.64,3.64,0,0,1,33.8,36.8Z"/><path d="M64.55,35.33c0,.64-.05,1.28-.11,1.91-2,4.84-7.58,10.27-30.29,10.27-19.26,0-27-4.62-30.12-8.83-1.09-1.2-1.33-4.13-1.33-4.16-2,1.93-4,4.67-1.62,10.37a20.59,20.59,0,0,0,8.45,5.92L8.8,52.92H7a2.62,2.62,0,0,0-2,1c-1.09,1.31-1.23,3.65-.42,7,.32,1.09,2,6.55,4.74,7.42l1.7,0a56.45,56.45,0,0,0,4,11.88,11.58,11.58,0,0,0,5.83,5.5l6.4,2.72a15,15,0,0,0,10.85.35l6.7-2.35a11.6,11.6,0,0,0,6.8-6.38,102.86,102.86,0,0,0,4.17-11.7h1.8l.15,0c2.7-.87,4.42-6.33,4.75-7.47.8-3.32.65-5.67-.43-7a2.64,2.64,0,0,0-2-1H58.5l-1-2.19A31.77,31.77,0,0,0,65.86,46C69.74,41.85,66.8,37.6,64.55,35.33ZM9.81,66.42c-1.22-.57-2.68-3.89-3.3-6-.86-3.56-.29-4.81,0-5.19A.75.75,0,0,1,7,54.92H8.74c.22,2,.78,6.49,1.83,11.5Zm39,12.52a8.59,8.59,0,0,1-5,4.72L37.07,86a12,12,0,0,1-8.68-.28L22,83a8.57,8.57,0,0,1-4.32-4.08c-4.2-8.46-5.8-22.78-6-25.08l.7-2c5.95,1.92,13.47,2.86,22,2.86a67.12,67.12,0,0,0,20.32-3l.87,1.88C54.73,63.82,51,73.84,48.81,78.94ZM60,54.92H60a.79.79,0,0,1,.45.29c.3.36.9,1.59,0,5.18-.62,2.14-2.08,5.46-3.31,6h-.91a73.17,73.17,0,0,0,2.12-11.5Z"/></g></g></svg>