<svg xmlns="http://www.w3.org/2000/svg" viewBox="0 0 90 71.92"><defs><style>.cls-1{fill-rule:evenodd;}</style></defs><title>twitter</title><g id="Capa_2" data-name="Capa 2"><g id="Capa_1-2" data-name="Capa 1"><path class="cls-1" d="M90,8.51a38.24,38.24,0,0,1-10.62,2.86A18,18,0,0,0,87.51,1.28,36.88,36.88,0,0,1,75.77,5.72,18.54,18.54,0,0,0,43.83,18.15a18.79,18.79,0,0,0,.53,4.14,52.45,52.45,0,0,1-38-19,18,18,0,0,0-2.56,9.11A18.19,18.19,0,0,0,12,27.56,18.45,18.45,0,0,1,3.61,25.3v.23A17.18,17.18,0,0,0,4.9,32.08,18.39,18.39,0,0,0,18.45,43.3a17.48,17.48,0,0,1-4.9.68,18,18,0,0,1-3.46-.38A18.54,18.54,0,0,0,27.34,56.26,37.17,37.17,0,0,1,4.44,64,43.69,43.69,0,0,1,0,63.79a53.38,53.38,0,0,0,28.32,8.13c28.84,0,46.62-20,51.29-40.67a50.24,50.24,0,0,0,1.21-11V17.92A39.06,39.06,0,0,0,90,8.51Z"/></g></g></svg>