<svg xmlns="http://www.w3.org/2000/svg" xmlns:xlink="http://www.w3.org/1999/xlink" viewBox="0 0 189.96 79.7"><defs><style>.cls-1{fill:none;}.cls-2{fill:#d6ab00;}.cls-3{fill:url(#Degradado_sin_nombre_18);}.cls-4{clip-path:url(#clip-path);}.cls-5{opacity:0.7;}.cls-6{fill:#a8aaac;}.cls-7{fill:#a2a4a7;}.cls-8{font-size:8.39px;font-family:ArialNarrow, Arial;}.cls-9{fill:#7c7e80;}.cls-10{fill:#272425;}</style><linearGradient id="Degradado_sin_nombre_18" x1="40.76" y1="8.7" x2="40.76" y2="73.53" gradientUnits="userSpaceOnUse"><stop offset="0" stop-color="#fff"/><stop offset="0.17" stop-color="#fffffd"/><stop offset="0.27" stop-color="#fefef4"/><stop offset="0.35" stop-color="#fcfce6"/><stop offset="0.43" stop-color="#f9fad2"/><stop offset="0.49" stop-color="#f6f6b8"/><stop offset="0.55" stop-color="#f2f399"/><stop offset="0.61" stop-color="#edee73"/><stop offset="0.66" stop-color="#e7e948"/><stop offset="0.71" stop-color="#e1e319"/></linearGradient><clipPath id="clip-path"><path class="cls-1" d="M23.72,22.56,43.14,8.7h7.18v30h13A2.28,2.28,0,0,1,65.59,41V56.59a2.28,2.28,0,0,1-2.28,2.28H50.52V71.25a2.28,2.28,0,0,1-2.28,2.28H33.07a2.28,2.28,0,0,1-2.28-2.28V58.66H18.21a2.28,2.28,0,0,1-2.28-2.28V41.11a2.28,2.28,0,0,1,2.28-2.28H31.1V30.42H23.72Z"/></clipPath></defs><title>Recurso 2</title><g id="Capa_2" data-name="Capa 2"><g id="Capa_1-2" data-name="Capa 1"><path class="cls-2" d="M21.65,32.44v-11L42.58,6.78h9.66V36.92H63.87a3.69,3.69,0,0,1,3.69,3.69V57a3.69,3.69,0,0,1-3.69,3.69H52.24V72.57a3.69,3.69,0,0,1-3.69,3.69H32.77a3.69,3.69,0,0,1-3.69-3.69V60.28H17.65A3.69,3.69,0,0,1,14,56.59v-16a3.69,3.69,0,0,1,3.69-3.69H29.08V32.47Z"/><path d="M22.43,31.52H30v6.35H17.75a3,3,0,0,0-3,3V56.66a3,3,0,0,0,3,3H30v12a3,3,0,0,0,3,3H48.37a3,3,0,0,0,3-3V59.77H63.54a3,3,0,0,0,3-3v-16a3,3,0,0,0-3-3H51.43V7.69h-8.9L22.43,21.75Z"/><path class="cls-3" d="M23.72,22.56,43.14,8.7h7.18v30h13A2.28,2.28,0,0,1,65.59,41V56.59a2.28,2.28,0,0,1-2.28,2.28H50.52V71.25a2.28,2.28,0,0,1-2.28,2.28H33.07a2.28,2.28,0,0,1-2.28-2.28V58.66H18.21a2.28,2.28,0,0,1-2.28-2.28V41.11a2.28,2.28,0,0,1,2.28-2.28H31.1V30.42H23.72Z"/><g class="cls-4"><g class="cls-5"><line class="cls-6" x1="27.38" x2="27.87" y2="79.7"/><rect class="cls-6" x="27.32" width="0.61" height="79.7" transform="translate(-0.25 0.17) rotate(-0.35)"/><line class="cls-6" x1="20.62" x2="21.12" y2="79.7"/><rect class="cls-6" x="20.57" width="0.61" height="79.7" transform="translate(-0.25 0.13) rotate(-0.35)"/><line class="cls-6" x1="33.69" x2="34.18" y2="79.7"/><rect class="cls-6" x="33.63" width="0.61" height="79.7" transform="translate(-0.25 0.21) rotate(-0.35)"/><line class="cls-6" x1="39.96" x2="40.46" y2="79.7"/><rect class="cls-6" x="39.91" width="0.61" height="79.7" transform="translate(-0.25 0.25) rotate(-0.35)"/><line class="cls-6" x1="46.32" x2="46.81" y2="79.7"/><rect class="cls-6" x="46.26" width="0.61" height="79.7" transform="translate(-0.25 0.29) rotate(-0.35)"/><line class="cls-6" x1="52.59" x2="53.08" y2="79.7"/><rect class="cls-6" x="52.53" width="0.61" height="79.7" transform="translate(-0.25 0.33) rotate(-0.35)"/><line class="cls-6" x1="58.76" x2="59.25" y2="79.7"/><rect class="cls-6" x="58.7" width="0.61" height="79.7" transform="translate(-0.25 0.37) rotate(-0.35)"/><line class="cls-6" x1="79.7" y1="12.66" y2="13.15"/><rect class="cls-6" y="12.6" width="79.7" height="0.61" transform="translate(-0.07 0.23) rotate(-0.34)"/><line class="cls-6" x1="79.7" y1="19.64" y2="20.13"/><rect class="cls-6" y="19.58" width="79.7" height="0.61" transform="translate(-0.12 0.23) rotate(-0.34)"/><line class="cls-6" x1="79.7" y1="26.5" y2="27"/><rect class="cls-6" y="26.45" width="79.7" height="0.61" transform="translate(-0.16 0.23) rotate(-0.34)"/><line class="cls-6" x1="79.7" y1="33.78" y2="34.27"/><rect class="cls-6" y="33.72" width="79.7" height="0.61" transform="translate(-0.2 0.23) rotate(-0.34)"/><line class="cls-6" x1="79.7" y1="40.94" y2="41.44"/><rect class="cls-6" y="40.89" width="79.7" height="0.61" transform="translate(-0.24 0.23) rotate(-0.34)"/><line class="cls-6" x1="79.7" y1="48.04" y2="48.53"/><rect class="cls-6" y="47.98" width="79.7" height="0.61" transform="translate(-0.28 0.23) rotate(-0.34)"/><line class="cls-6" x1="79.7" y1="55.12" y2="55.61"/><rect class="cls-6" y="55.06" width="79.7" height="0.61" transform="translate(-0.32 0.23) rotate(-0.34)"/><line class="cls-6" x1="79.7" y1="62.2" y2="62.69"/><rect class="cls-6" y="62.14" width="79.7" height="0.61" transform="translate(-0.37 0.23) rotate(-0.34)"/><line class="cls-6" x1="79.7" y1="69.28" y2="69.77"/><rect class="cls-6" y="69.22" width="79.7" height="0.61" transform="translate(-0.41 0.23) rotate(-0.34)"/></g></g><path d="M49.41,52.64V49.31h-.66v3.34H15.48V48.43l4.4-1.53v2l.66-.58V44.7H22v2.86l.21,0,.35,1.83h.1V43h1.06v5H24l.15-4.63,1.12.17v4l.46-.1V49l2.13-1.12.48.32.22.29V45l4.25-.3V46l7.16-1.37.82-2.11h.92l.05-9.18,1.2-.1.35,9,.43-.29V33.06l1.77-.62v9l.3-.1V32.21l1.82-.68v9.54H48v-1.8l1.77-.92,2.58,1.37v2.2l6.88,2.79V43.49l2.09,0,1.5.63v5.44l.3.66v-.94h2.33v3.34ZM63.72,52h1.11V49.91H63.72ZM50,52H63.27L62.2,49.66V44.55l-1.07-.45h-1.3v1.51l-8.09-3.28V40.08l-2-1.05-1.16.6v2H47V32.4l-.61.23v9.16l-1.52.51v-9l-.56.19v8.82l-1.6,1.08-.36-9.48h0l-.05,9.23H41.17l-.79,2-8.21,1.57V45.33l-3,.21v4.27h-1.2l-.06-1.45h-.32L25.27,49.6V48.1l-.31,0-.39.09-.1.27-.18,0h-.49l-.11,0-.06.23L23.26,50H21.95V48.17l-.56-.05V45.31h-.25v3.27l-1.87,1.65V47.76l-3.19,1.1V52H48.14V48.7H50Z"/><rect x="15.78" y="51.02" width="13.3" height="0.61"/><rect x="15.78" y="50.19" width="13.3" height="0.61"/><rect class="cls-7" x="71.12" y="64.68" width="112.4" height="10.38" rx="4" ry="4"/><text class="cls-8" transform="translate(73.57 73.31) scale(0.94 1)">Unidad de Seguridad y Salud Laboral</text><path class="cls-9" d="M72.21,33h4.32V56.1s.09,1.66,1.57,1.66,1.7-.52,1.75-1.53V33H84.4V56.67s-.83,2.93-6.55,2.93-5.64-3.67-5.64-3.67Z"/><path class="cls-9" d="M88.2,32.93h4.46V35a3.66,3.66,0,0,1,4.94-2.27,4.38,4.38,0,0,1,2.75,4V59.16H96.41V36s-.66-1.4-1.88-1.4-1.88,1.79-1.88,1.79V59.16H88.2Z"/><polygon class="cls-9" points="104.6 32.92 108.97 32.92 108.97 58.65 104.6 58.65 104.6 33.14 104.6 32.92"/><path class="cls-9" d="M124.46,40.86h-4.28V35.93a2,2,0,0,0-1.92-1.44,1.58,1.58,0,0,0-1.7,1.35V42.7a1.6,1.6,0,0,0,1.79,1.49h2.36a3.84,3.84,0,0,1,3.76,4v7.73s-1,3.15-3.67,3.15h-4s-3.67-.83-3.67-3.49V49.34h3.58v6.6a1.61,1.61,0,0,0,1.68,1.44c1.55,0,1.86-1,1.86-1.49V47.76a1.87,1.87,0,0,0-1.86-1.68h-3.47a3.65,3.65,0,0,1-2.62-3.43V36.28s.35-2.88,2.4-3.28c0,0,4.15-1.14,7.3,0,0,0,2.49.66,2.49,4.28Z"/><path class="cls-9" d="M134.49,32.41c-5.59,0-6.12,3.27-6.12,3.27v23h4.41V46.39h3.41V58.66h4.19V36S140.08,32.41,134.49,32.41Zm1.62,11.88H132.7V35.86a1.71,1.71,0,0,1,3.41-.09Z"/><polygon class="cls-9" points="144.36 33.15 148.5 33.15 148.5 56.21 152.09 56.21 152.09 59.45 144.36 59.45 144.36 33.15"/><path class="cls-9" d="M178.57,33h-7l.12,26.45h8.18c2.74,0,3.7-2.85,3.7-2.85v-20C183.52,33,178.57,33,178.57,33Zm.73,22.84a1.18,1.18,0,0,1-1,.8H176l0-21.38h2s1.38,0,1.38,1Z"/><path class="cls-10" d="M71.12,34.22h4.32V57.33S75.53,59,77,59s1.7-.52,1.75-1.53V34.22h4.54V57.9s-.83,2.93-6.55,2.93-5.64-3.67-5.64-3.67Z"/><polygon class="cls-9" points="72.21 33 76.54 33 75.44 34.22 71.12 34.22 72.21 33"/><polygon class="cls-9" points="144.28 33.15 148.5 33.15 147.74 34.22 143.2 34.22 144.28 33.15"/><polygon class="cls-9" points="79.86 33 84.4 33 83.31 34.22 78.76 34.22 79.86 33"/><path class="cls-9" d="M154.77,33h4.32V56.1s.09,1.66,1.57,1.66,1.7-.52,1.75-1.53V33H167V56.67s-.83,2.93-6.55,2.93-5.64-3.67-5.64-3.67Z"/><path class="cls-10" d="M153.68,34.22H158V57.33s.09,1.66,1.57,1.66,1.7-.52,1.75-1.53V34.22h4.54V57.9s-.83,2.93-6.55,2.93-5.64-3.67-5.64-3.67Z"/><polygon class="cls-9" points="154.77 33 159.1 33 158.01 34.22 153.68 34.22 154.77 33"/><polygon class="cls-9" points="162.42 33 166.96 33 165.87 34.22 161.33 34.22 162.42 33"/><polygon class="cls-9" points="171.26 33 175.8 33 174.71 34.22 170.16 34.22 171.26 33"/><polygon class="cls-9" points="88.2 32.93 92.66 32.93 91.65 34.22 87.19 34.22 88.2 32.93"/><polygon class="cls-9" points="104.6 32.92 108.97 32.92 107.81 34.22 103.44 34.22 104.6 32.92"/><polygon class="cls-9" points="113.1 49.34 116.68 49.34 115.81 50.78 111.4 50.78 113.1 49.34"/><polygon class="cls-9" points="91.75 59.95 92.66 59.16 87.19 59.16 87.19 59.95 91.75 59.95"/><polygon class="cls-9" points="99.44 59.95 100.34 59.16 95.41 59.16 95.41 59.95 99.44 59.95"/><polygon class="cls-9" points="107.82 59.95 108.97 58.65 103.8 58.65 103.8 59.95 107.82 59.95"/><polygon class="cls-9" points="123.58 42.3 124.46 40.84 119.56 40.88 119.55 42.28 123.58 42.3"/><polygon class="cls-9" points="139.23 59.95 140.39 58.66 135.21 58.63 135.2 59.93 139.23 59.95"/><polygon class="cls-9" points="151.33 60.52 152.09 59.45 147.3 59.42 147.3 60.5 151.33 60.52"/><polygon class="cls-9" points="131.65 59.95 132.79 58.66 127.62 58.63 127.62 59.93 131.65 59.95"/><path class="cls-10" d="M87.19,34.22h4.46v2.05A3.66,3.66,0,0,1,96.59,34a4.38,4.38,0,0,1,2.75,4V59.95H95.41V37.28s-.66-1.4-1.88-1.4-1.88,1.79-1.88,1.79V59.95H87.19Z"/><polygon class="cls-10" points="103.44 34.22 107.81 34.22 107.81 59.95 103.44 59.95 103.44 34.44 103.44 34.22"/><path class="cls-10" d="M123.58,42.3H119.3V37.36a2,2,0,0,0-1.92-1.44,1.58,1.58,0,0,0-1.7,1.35v6.86a1.6,1.6,0,0,0,1.79,1.49h2.36a3.84,3.84,0,0,1,3.76,4v7.73s-1,3.15-3.67,3.15h-4.85s-3.67-.83-3.67-3.49V50.78h4.41v6.6a1.61,1.61,0,0,0,1.68,1.44c1.55,0,1.86-1,1.86-1.49V49.2a1.87,1.87,0,0,0-1.86-1.68H114a3.65,3.65,0,0,1-2.62-3.43V37.71s.35-2.88,2.4-3.28c0,0,4.15-1.14,7.3,0,0,0,2.49.66,2.49,4.28Z"/><path class="cls-10" d="M133.32,33.7c-5.59,0-6.12,3.27-6.12,3.27v23h4.41V47.67H135V59.95h4.19V37.32S138.92,33.7,133.32,33.7Zm1.62,11.88h-3.41V37.15a1.71,1.71,0,0,1,3.41-.09Z"/><polygon class="cls-10" points="143.2 34.22 147.74 34.22 147.74 57.28 151.32 57.28 151.32 60.52 143.2 60.52 143.2 34.22"/><path class="cls-10" d="M177.21,34.22h-7l.12,25.92h8.18c2.74,0,3.7-2.85,3.7-2.85V37.77C182.16,34.25,177.21,34.22,177.21,34.22Zm.73,22.84a1.18,1.18,0,0,1-1,.8h-2.28l0-21.38h2s1.38,0,1.38,1Z"/><path class="cls-9" d="M72.21,33h4.32V56.1s.09,1.66,1.57,1.66,1.7-.52,1.75-1.53V33H84.4V56.67s-.83,2.93-6.55,2.93-5.64-3.67-5.64-3.67Z"/><path class="cls-9" d="M88.2,32.93h4.46V35a3.66,3.66,0,0,1,4.94-2.27,4.38,4.38,0,0,1,2.75,4V59.16H96.41V36s-.66-1.4-1.88-1.4-1.88,1.79-1.88,1.79V59.16H88.2Z"/><polygon class="cls-9" points="104.6 32.92 108.97 32.92 108.97 58.65 104.6 58.65 104.6 33.14 104.6 32.92"/><path class="cls-9" d="M124.46,40.86h-4.28V35.93a2,2,0,0,0-1.92-1.44,1.58,1.58,0,0,0-1.7,1.35V42.7a1.6,1.6,0,0,0,1.79,1.49h2.36a3.84,3.84,0,0,1,3.76,4v7.73s-1,3.15-3.67,3.15h-4s-3.67-.83-3.67-3.49V49.34h3.58v6.6a1.61,1.61,0,0,0,1.68,1.44c1.55,0,1.86-1,1.86-1.49V47.76a1.87,1.87,0,0,0-1.86-1.68h-3.47a3.65,3.65,0,0,1-2.62-3.43V36.28s.35-2.88,2.4-3.28c0,0,4.15-1.14,7.3,0,0,0,2.49.66,2.49,4.28Z"/><path class="cls-9" d="M134.49,32.41c-5.59,0-6.12,3.27-6.12,3.27v23h4.41V46.39h3.41V58.66h4.19V36S140.08,32.41,134.49,32.41Zm1.62,11.88H132.7V35.86a1.71,1.71,0,0,1,3.41-.09Z"/><polygon class="cls-9" points="144.36 33.15 148.5 33.15 148.5 56.21 152.09 56.21 152.09 59.45 144.36 59.45 144.36 33.15"/><path class="cls-9" d="M178.57,33h-7l.12,26.45h8.18c2.74,0,3.7-2.85,3.7-2.85v-20C183.52,33,178.57,33,178.57,33Zm.73,22.84a1.18,1.18,0,0,1-1,.8H176l0-21.38h2s1.38,0,1.38,1Z"/><path d="M71.12,34.22h4.32V57.33S75.53,59,77,59s1.7-.52,1.75-1.53V34.22h4.54V57.9s-.83,2.93-6.55,2.93-5.64-3.67-5.64-3.67Z"/><polygon class="cls-9" points="72.21 33 76.54 33 75.44 34.22 71.12 34.22 72.21 33"/><polygon class="cls-9" points="144.28 33.15 148.5 33.15 147.74 34.22 143.2 34.22 144.28 33.15"/><polygon class="cls-9" points="79.86 33 84.4 33 83.31 34.22 78.76 34.22 79.86 33"/><path class="cls-9" d="M154.77,33h4.32V56.1s.09,1.66,1.57,1.66,1.7-.52,1.75-1.53V33H167V56.67s-.83,2.93-6.55,2.93-5.64-3.67-5.64-3.67Z"/><path d="M153.68,34.22H158V57.33s.09,1.66,1.57,1.66,1.7-.52,1.75-1.53V34.22h4.54V57.9s-.83,2.93-6.55,2.93-5.64-3.67-5.64-3.67Z"/><polygon class="cls-9" points="154.77 33 159.1 33 158.01 34.22 153.68 34.22 154.77 33"/><polygon class="cls-9" points="162.42 33 166.96 33 165.87 34.22 161.33 34.22 162.42 33"/><polygon class="cls-9" points="171.26 33 175.8 33 174.71 34.22 170.16 34.22 171.26 33"/><polygon class="cls-9" points="88.2 32.93 92.66 32.93 91.65 34.22 87.19 34.22 88.2 32.93"/><polygon class="cls-9" points="104.6 32.92 108.97 32.92 107.81 34.22 103.44 34.22 104.6 32.92"/><polygon class="cls-9" points="113.1 49.34 116.68 49.34 115.81 50.78 111.4 50.78 113.1 49.34"/><polygon class="cls-9" points="91.75 59.95 92.66 59.16 87.19 59.16 87.19 59.95 91.75 59.95"/><polygon class="cls-9" points="99.44 59.95 100.34 59.16 95.41 59.16 95.41 59.95 99.44 59.95"/><polygon class="cls-9" points="107.82 59.95 108.97 58.65 103.8 58.65 103.8 59.95 107.82 59.95"/><polygon class="cls-9" points="123.58 42.3 124.46 40.84 119.56 40.88 119.55 42.28 123.58 42.3"/><polygon class="cls-9" points="139.23 59.95 140.39 58.66 135.21 58.63 135.2 59.93 139.23 59.95"/><polygon class="cls-9" points="151.33 60.52 152.09 59.45 147.3 59.42 147.3 60.5 151.33 60.52"/><polygon class="cls-9" points="131.65 59.95 132.79 58.66 127.62 58.63 127.62 59.93 131.65 59.95"/><path d="M87.19,34.22h4.46v2.05A3.66,3.66,0,0,1,96.59,34a4.38,4.38,0,0,1,2.75,4V59.95H95.41V37.28s-.66-1.4-1.88-1.4-1.88,1.79-1.88,1.79V59.95H87.19Z"/><polygon points="103.44 34.22 107.81 34.22 107.81 59.95 103.44 59.95 103.44 34.44 103.44 34.22"/><path d="M123.58,42.3H119.3V37.36a2,2,0,0,0-1.92-1.44,1.58,1.58,0,0,0-1.7,1.35v6.86a1.6,1.6,0,0,0,1.79,1.49h2.36a3.84,3.84,0,0,1,3.76,4v7.73s-1,3.15-3.67,3.15h-4.85s-3.67-.83-3.67-3.49V50.78h4.41v6.6a1.61,1.61,0,0,0,1.68,1.44c1.55,0,1.86-1,1.86-1.49V49.2a1.87,1.87,0,0,0-1.86-1.68H114a3.65,3.65,0,0,1-2.62-3.43V37.71s.35-2.88,2.4-3.28c0,0,4.15-1.14,7.3,0,0,0,2.49.66,2.49,4.28Z"/><path d="M133.32,33.7c-5.59,0-6.12,3.27-6.12,3.27v23h4.41V47.67H135V59.95h4.19V37.32S138.92,33.7,133.32,33.7Zm1.62,11.88h-3.41V37.15a1.71,1.71,0,0,1,3.41-.09Z"/><polygon points="143.2 34.22 147.74 34.22 147.74 57.28 151.32 57.28 151.32 60.52 143.2 60.52 143.2 34.22"/><path d="M177.21,34.22h-7l.12,25.92h8.18c2.74,0,3.7-2.85,3.7-2.85V37.77C182.16,34.25,177.21,34.22,177.21,34.22Zm.73,22.84a1.18,1.18,0,0,1-1,.8h-2.28l0-21.38h2s1.38,0,1.38,1Z"/><path class="cls-2" d="M83,55h0a.62.62,0,0,1-.57-.52l-1.33-8L79.6,53.07a.8.8,0,0,1-1.3.44l-1.63-1.36H74.46a.71.71,0,0,1-.7-.58c0-.23-.23-1-1-1-.54,0-.76.7-.83,1a.71.71,0,0,1-.69.55H66.54v-1H71a1.92,1.92,0,0,1,1.78-1.54,2,2,0,0,1,1.92,1.54h2a.92.92,0,0,1,.59.21l1.36,1.13,2-9.14h.89l.09.45,1.46,8.83.29-.89a.82.82,0,0,1,.78-.57h2.31a4,4,0,0,1,3.65-2.94,5.31,5.31,0,0,1,4.67,3h1.67A1.73,1.73,0,0,1,98,49.59a1.66,1.66,0,0,1,1.87,1.47l2.17,0a1,1,0,0,1,.76.36l.68.86,1.92-8.52.47,0a.57.57,0,0,1,.56.46l1.77,8.54.35-.9a.9.9,0,0,1,.84-.57h2.42a4.35,4.35,0,0,1,4-3.12,4.51,4.51,0,0,1,4.11,3.12h1.86a1.91,1.91,0,0,1,1.82-1.72,1.93,1.93,0,0,1,1.86,1.57h2.13a.93.93,0,0,1,.81.48l.36.66,1.14-7.87a.59.59,0,0,1,.57-.5.57.57,0,0,1,.58.47l1.78,8.94,1-1.6a1,1,0,0,1,.84-.46h2.78a4.07,4.07,0,0,1,3.93-3,4.7,4.7,0,0,1,4.27,3.06h1.83c.24-1,.74-1.57,1.41-1.66s1.54,0,2,1.54h1.87a1,1,0,0,1,.79.37l.47.57,1.45-7.91a.62.62,0,0,1,.61-.51h0a.62.62,0,0,1,.61.51l1.55,8.23.18-.51a.94.94,0,0,1,.89-.62h1.34a4.15,4.15,0,0,1,3.84-3.18c2.65,0,4,2.39,4.29,3.12l2,0c.33-1,.9-1.53,1.63-1.6a2.06,2.06,0,0,1,2.15,1.63h2.1a1.09,1.09,0,0,1,.92.5l.29.45,1.67-7.55a.59.59,0,0,1,.58-.47h0a.59.59,0,0,1,.58.47l1.78,7.89.24-.75a1,1,0,0,1,.95-.69h5.72a.52.52,0,0,1,.52.52h0a.52.52,0,0,1-.52.52h-5.72l-.65,2.16a.63.63,0,0,1-.63.44.64.64,0,0,1-.59-.5l-1.67-7.39-1.43,6.48a.66.66,0,0,1-1.2.21l-.79-1.24-2.25,0a.9.9,0,0,1-.88-.69c0-.1-.25-1-1.06-.94-.43,0-.68.73-.75.94a1,1,0,0,1-.93.67h-2.08a1,1,0,0,1-.91-.58,3.91,3.91,0,0,0-3.34-2.51,3.17,3.17,0,0,0-2.88,2.47,1,1,0,0,1-1,.7h-1.27l-.68,1.89a.63.63,0,0,1-1.21-.1l-1.42-7.5-1.19,6.46a.67.67,0,0,1-1.17.31l-1-1.19h-2a.86.86,0,0,1-.84-.62c-.28-1-.71-1-.91-.93s-.43.42-.55,1a.88.88,0,0,1-.85.69h-2.05a.91.91,0,0,1-.85-.58,3.64,3.64,0,0,0-3.33-2.48,3,3,0,0,0-2.95,2.32,1,1,0,0,1-.91.69h-2.85l-1.45,2.39A.67.67,0,0,1,132,54.4l-1.44-7.23-.93,6.44a.63.63,0,0,1-1.17.21l-.93-1.7H125.3a.82.82,0,0,1-.81-.65c-.09-.42-.32-.93-.88-.93s-.74.56-.82,1a.82.82,0,0,1-.81.69h-2.2a.82.82,0,0,1-.77-.54,3.56,3.56,0,0,0-3.17-2.58,3.31,3.31,0,0,0-3,2.5.91.91,0,0,1-.87.62h-2.41l-.77,2a.67.67,0,0,1-1.29-.1l-1.59-7.66-1.52,6.71a.69.69,0,0,1-1.22.27L102,52.07l-2.37,0a.78.78,0,0,1-.75-.63c-.15-.92-.55-.88-.77-.86-.43,0-.57.51-.6.9a.78.78,0,0,1-.78.71H94.69a.81.81,0,0,1-.75-.51,4.23,4.23,0,0,0-3.76-2.49c-1.83,0-2.54,1.82-2.71,2.38a.8.8,0,0,1-.77.56H84.38l-.78,2.4A.62.62,0,0,1,83,55Zm70.89-2.15h0Zm17-1.7h0Z"/></g></g></svg>