<svg xmlns="http://www.w3.org/2000/svg" viewBox="0 0 156 45.86"><defs><style>.cls-1{fill:#212121;}</style></defs><title>LogoUnisaludWeb</title><g id="Capa_2" data-name="Capa 2"><g id="Capa_1-2" data-name="Capa 1"><path class="cls-1" d="M2.54,5H5V20.23c0,3.6,1.6,5.41,4.76,5.45s4.76-1.82,4.76-5.45V5h5V20.81C19.58,26.88,16,30,9.81,30S0,27.06,0,20.81V7.63A2.7,2.7,0,0,1,2.54,5Z"/><path class="cls-1" d="M23.33,5h2.72l10.06,17V5h5v24.7H35.82l-10.06-17v17h-5v-22A2.62,2.62,0,0,1,23.33,5Z"/><path class="cls-1" d="M42.4,7.63c0-1.74.84-2.65,2.54-2.65h2.51v24.7h-5Z"/><path class="cls-1" d="M64.4,16.71A57.29,57.29,0,0,0,58.52,15c-3.23-.73-4.79-1.85-4.79-3.41.11-1.89,1.42-2.87,4-2.91,2.14,0,3.63.69,4.47,2.11a2.37,2.37,0,0,0,2.25,1.45h2.83C67,7.12,64,4.57,58.19,4.57c-6.1,0-9.19,2.51-9.3,7.7,0,3.27,2.4,5.52,7.23,6.76,1.78.47,3.45.91,4.9,1.34s2.25,1.23,2.25,2.43c0,2-1.53,3.05-4.76,3.05s-4.9-1.31-5.09-3.92h-4.9c.15,5.38,3.45,8.1,10,8.1a17,17,0,0,0,4.09-.44l4.12-11.53A6.2,6.2,0,0,0,64.4,16.71Z"/><path class="cls-1" d="M85.63,24.63,78.58,5H74.51a2.28,2.28,0,0,0-2.4,1.63L68,18.06,63.9,29.6l0,.08h5.41l1.63-5h9.55l1.63,5h5.34ZM72.26,20.45,75.64,10l3.41,10.5Z"/><path class="cls-1" d="M98.87,25.48c0-.12-.09-.24-.13-.36H92V5H89.53A2.62,2.62,0,0,0,87,7.61v17l1.81,5H102.6A8,8,0,0,1,98.87,25.48Z"/><path class="cls-1" d="M121.48,11.92h0q0-.29,0-.58c0-.09,0-.17,0-.26s0-.22,0-.32,0-.23,0-.34,0-.16,0-.24,0-.28,0-.41l0-.17c0-.16,0-.32-.06-.47l0-.12c0-.17-.05-.35-.08-.52V8.41q0-.28-.1-.56v0a21.61,21.61,0,0,0-1.69-5.13h0l.06-.1,0-.07,0-.07,0-.07,0-.1v0s0-.1,0-.15V2s0-.08,0-.11V1.86c0-.05,0-.11,0-.16a1.79,1.79,0,0,0-3.57.18,1.81,1.81,0,0,0,0,.19v0s0,.09,0,.14v0l0,.14v0l.06.14h0l.08.14h0a1.79,1.79,0,0,0,.34.4h0l.09.09,0,0,.06,0,0,0,.09.05,0,0,.13.06,0,0,.1,0h0l.15,0a21.46,21.46,0,0,1,1.57,12h0a22.53,22.53,0,0,1-3.26,8,1.5,1.5,0,0,0-1.11.55c-1.12,1.45-2.84,3.17-5,3.49l-1,0c-2.2-.11-4.08-1.65-5.34-3a1.54,1.54,0,0,0-1.23-.44,23.16,23.16,0,0,1-4-7.67h0a21.46,21.46,0,0,1,.38-12.05l.17-.06h0L99,4.38h0l.1-.05h0l.1-.06h0A1.8,1.8,0,0,0,99.48,4l0,0,.06-.07,0,0,.06-.07.07-.11,0-.06,0-.07,0-.06,0-.09,0-.05,0-.15v0L100,3V3s0-.08,0-.12v0c0-.05,0-.11,0-.17a1.79,1.79,0,0,0-3.57.18c0,.05,0,.11,0,.16V3l0,.13,0,.06,0,.1,0,.07,0,.06.07.15v0l.05.09a22.06,22.06,0,0,0-1.29,6.53v.06c0,.18,0,.36,0,.54s0,.08,0,.12,0,.32,0,.48,0,.13,0,.19,0,.27,0,.4,0,.16,0,.24,0,.23,0,.35,0,.39,0,.58h0a22.17,22.17,0,0,0,5.23,12.46,1.26,1.26,0,0,0,.42,1.26,11.38,11.38,0,0,0,7.16,3.91l.06,1.23a9.77,9.77,0,0,1-3.61,6.49A13.1,13.1,0,0,1,97,41.12h-.11c-4,.2-9-.65-14.83-2.51a126.88,126.88,0,0,0-35.91-6.28c-10.83-.16-20.24,1.54-28.06,5.06A5.36,5.36,0,1,0,19,39.28c21.67-9.8,50.51-2.51,62.47,1.29,6.12,1.95,11.33,2.82,15.6,2.61a15.15,15.15,0,0,0,9.06-3.06,11.26,11.26,0,0,0,4.48-7.44h0a9.64,9.64,0,0,0,0-2,11.44,11.44,0,0,0,6.6-4.63,1.15,1.15,0,0,0,.3-1.22A22.89,22.89,0,0,0,121.48,11.92ZM13.74,44.45a3.94,3.94,0,1,1,3.94-3.94A3.95,3.95,0,0,1,13.74,44.45Z"/><circle class="cls-1" cx="13.74" cy="40.51" r="3.02"/><path class="cls-1" d="M129.11,30.17a63.21,63.21,0,0,0,7.06-.1,49.85,49.85,0,0,0,6.69-.91l.07,0a1.9,1.9,0,0,1-.16-.53,33,33,0,0,0-.83-7.65,33.08,33.08,0,0,0-3-8.31,18.46,18.46,0,0,0-3.65-5A9.68,9.68,0,0,0,131,5.21a8.83,8.83,0,0,0-5.34.42A15,15,0,0,0,123,7a2.48,2.48,0,0,1-.45.16l-.17.08a25,25,0,0,1,.47,4.29h0a24.35,24.35,0,0,1-4.24,13.74,1.23,1.23,0,0,1-.32,1.3A16.92,16.92,0,0,1,117.07,28a23.1,23.1,0,0,0,5,1.4A51.61,51.61,0,0,0,129.11,30.17Zm-5.28-6.49.3-.3.15-.16.14-.16.14-.17.13-.17c.09-.12.18-.23.25-.35l.24-.37.22-.38c.07-.13.13-.26.2-.39s.13-.26.19-.4.23-.54.34-.82.2-.56.29-.84.09-.28.13-.43.08-.29.12-.43l.11-.43c0-.14.07-.29.1-.44s.06-.29.09-.44.06-.29.09-.44l.08-.44.07-.44c0-.3.09-.59.13-.89s.07-.6.1-.89.05-.6.07-.9,0-.6,0-.9,0-.6,0-.9,0-.6,0-.9v-.05h2a7.55,7.55,0,0,1,1.58.13,4.82,4.82,0,0,1,1.5.56A4.36,4.36,0,0,1,133.83,12a5.62,5.62,0,0,1,.45.7,6.63,6.63,0,0,1,.35.75,8.8,8.8,0,0,1,.44,1.58,12.66,12.66,0,0,1,.19,1.61c0,.14,0,.26,0,.4v.41c0,.27,0,.54,0,.81a10.67,10.67,0,0,1-.2,1.63,7,7,0,0,1-.52,1.61,4.84,4.84,0,0,1-1,1.42,4.39,4.39,0,0,1-.7.54c-.12.08-.25.15-.38.22s-.26.13-.4.18a6.5,6.5,0,0,1-1.64.41l-.41,0-.41,0h-.8l-1.57,0-3.14,0h-.84Z"/><path class="cls-1" d="M128.78,23.51h.76l.37,0,.37-.05a6.69,6.69,0,0,0,.72-.16,4.88,4.88,0,0,0,.67-.25c.11,0,.21-.11.31-.16s.2-.12.29-.19a3.38,3.38,0,0,0,.52-.44,3.7,3.7,0,0,0,.43-.53,4.9,4.9,0,0,0,.34-.61A6.82,6.82,0,0,0,134,19.7c0-.12,0-.24.07-.36s0-.24.05-.37.06-.5.08-.75,0-.5,0-.76v-.38c0-.13,0-.27,0-.39,0-.5,0-1-.05-1.51a8.92,8.92,0,0,0-.23-1.48,6,6,0,0,0-.22-.71,5,5,0,0,0-.32-.67,4,4,0,0,0-.43-.6,3.77,3.77,0,0,0-.55-.51,3.59,3.59,0,0,0-.65-.39c-.11-.06-.24-.1-.35-.15l-.37-.11a6.3,6.3,0,0,0-1.54-.2h-1.88c0,.29,0,.57,0,.86s0,.6,0,.91,0,.6,0,.91,0,.6,0,.91,0,.6,0,.91,0,.6-.07.91l0,.45-.06.45c0,.15,0,.3-.06.45s0,.3-.07.45-.05.3-.08.45l-.09.45c0,.15-.07.3-.11.45s-.08.3-.12.44-.18.59-.27.88-.21.58-.33.86-.12.29-.19.42-.13.28-.2.42l-.22.41c-.08.14-.16.27-.24.4s-.17.26-.26.39l-.14.19-.15.18-.07.09,2.34,0Z"/><path class="cls-1" d="M140.46,10.67a32.6,32.6,0,0,1,3.86,8.82,38.58,38.58,0,0,1,1.23,6.18c.1.88.15,1.77.19,2.66a3.15,3.15,0,0,0,.24,1.19c.13.3.23.61.36.94l4.57-1.6c-.18-.48-.36-.93-.52-1.39a1.13,1.13,0,0,1-.08-.35,22.86,22.86,0,0,0-1.87-8.33,27.43,27.43,0,0,0-6.8-9.89A17.5,17.5,0,0,0,135.17,5c-.37-.12-.75-.22-1.12-.33a14.35,14.35,0,0,1,2.52,1.58A17.74,17.74,0,0,1,140.46,10.67Z"/><path class="cls-1" d="M155.75,31.29c-.92-.78-1.86-1.55-2.79-2.32-.22-.18-.45-.35-.68-.53a4.81,4.81,0,0,1-2.59,2.36,21.62,21.62,0,0,1-4.83,1.63,47.73,47.73,0,0,1-6.09,1,67.63,67.63,0,0,1-8.6.36l-2.26-.07h-.11v0l1.33.59q3.28,1.44,6.68,2.59a8.86,8.86,0,0,0,3.64.3A37.76,37.76,0,0,0,147,35.57c1.87-.56,3.75-1.13,5.6-1.76A18.91,18.91,0,0,0,155,32.67a3,3,0,0,0,.74-.59A.46.46,0,0,0,155.75,31.29Z"/><path class="cls-1" d="M134.45,33.1a62.88,62.88,0,0,0,6.42-.58,33,33,0,0,0,7.56-1.85c.57-.23,1.12-.52,1.68-.78l0-.07L146.82,31c-.88.3-.58.34-1.34-.17s-1.22-.84-1.84-1.25a.54.54,0,0,0-.35-.07c-1.6.25-3.18.57-4.78.76a49.87,49.87,0,0,1-7.34.36c-1.58,0-3.17-.09-4.75-.21a33.34,33.34,0,0,1-8.93-1.75l-.7-.28a12.72,12.72,0,0,1-2.48,1.94,13.55,13.55,0,0,0,2.9,1.18,35.66,35.66,0,0,0,5.75,1.18A67,67,0,0,0,134.45,33.1Z"/><path class="cls-1" d="M137.61,9.29a26.5,26.5,0,0,1,3.72,7.21,37.21,37.21,0,0,1,1.6,6.25,31.76,31.76,0,0,1,.47,5.66.32.32,0,0,0,.08.23l2,1.39a4,4,0,0,1-.17-.45,5,5,0,0,1-.2-1,37.5,37.5,0,0,0-1.9-10.49,29,29,0,0,0-4-8.11,14.68,14.68,0,0,0-4.38-4.15,9.78,9.78,0,0,0-3.38-1.23.27.27,0,0,0-.12,0,10,10,0,0,1,2.41,1.06A13.77,13.77,0,0,1,137.61,9.29Z"/><path class="cls-1" d="M143.6,10a29.23,29.23,0,0,1,6,10c0,.13.09.26.13.39h.06c-.13-.6-.25-1.21-.39-1.81a20.11,20.11,0,0,0-3.29-7.31,16.39,16.39,0,0,0-9.18-6.3h-.17L137,5A20.38,20.38,0,0,1,143.6,10Z"/><path class="cls-1" d="M151.6,28.41c.16-.34.15-.34-.13-.58l-.35-.31,0,0,.41,1.07Z"/><path class="cls-1" d="M127.6,10.35h0v0Z"/></g></g></svg>