<svg xmlns="http://www.w3.org/2000/svg" xmlns:xlink="http://www.w3.org/1999/xlink" viewBox="0 0 495 495"><defs><style>.cls-1{isolation:isolate;}.cls-2{fill:#009fe3;}.cls-3{fill:#00749c;}.cls-4{fill:#fff;}.cls-5,.cls-6,.cls-8{opacity:0.75;}.cls-5,.cls-6,.cls-7,.cls-8{mix-blend-mode:multiply;}.cls-5{fill:url(#Degradado_sin_nombre_9);}.cls-6{fill:url(#Degradado_sin_nombre_9-2);}.cls-7{opacity:0.6;fill:url(#Degradado_sin_nombre_56);}.cls-8{fill:url(#Degradado_sin_nombre_56-2);}</style><linearGradient id="Degradado_sin_nombre_9" x1="252.56" y1="338.92" x2="408.45" y2="420.29" gradientUnits="userSpaceOnUse"><stop offset="0" stop-color="#1d1d1b" stop-opacity="0"/><stop offset="1" stop-color="#1d1d1b"/></linearGradient><linearGradient id="Degradado_sin_nombre_9-2" x1="30.83" y1="339.41" x2="187.42" y2="421.15" gradientTransform="matrix(-1, 0, 0, 1, 273.17, 0)" xlink:href="#Degradado_sin_nombre_9"/><linearGradient id="Degradado_sin_nombre_56" x1="211.46" y1="247.4" x2="83.59" y2="196.06" gradientUnits="userSpaceOnUse"><stop offset="0" stop-color="#1d1d1b" stop-opacity="0"/><stop offset="1" stop-color="#1d1d1b" stop-opacity="0.65"/></linearGradient><linearGradient id="Degradado_sin_nombre_56-2" x1="287.01" y1="247.33" x2="412.32" y2="190.04" xlink:href="#Degradado_sin_nombre_56"/></defs><title>LogoPrincipal</title><g class="cls-1"><g id="Capa_2" data-name="Capa 2"><g id="Capa_1-2" data-name="Capa 1"><path class="cls-2" d="M247.5,495C111,495,0,384,0,247.5S111,0,247.5,0,495,111,495,247.5,384,495,247.5,495Z"/><path class="cls-3" d="M247.5,58.23l1.73.67L474.21,233S497,352.81,383.13,435L121.28,412.46l94.3-58.83,29.91-12.52h4.22l18.09,7.23L350,388.94,244,73.13Z"/><path class="cls-4" d="M247.5,495C111,495,0,384,0,247.5S111,0,247.5,0,495,111,495,247.5,384,495,247.5,495Zm0-469.94c-122.65,0-222.44,99.78-222.44,222.44S124.85,469.94,247.5,469.94,469.94,370.15,469.94,247.5,370.15,25.06,247.5,25.06Z"/><path class="cls-4" d="M381.6,386.69h0c7.12,17.68-12.88,33.94-28.73,23.35L249.7,341.14Z"/><path class="cls-5" d="M381.6,387h0c7.12,17.68-12.88,33.94-28.73,23.35l-103-69.17Z"/><path class="cls-4" d="M113.4,387.37h0c-7.12,17.68,12.88,33.94,28.73,23.35l103.35-69.59Z"/><path class="cls-6" d="M113.93,387.17l-.81,1.26a18.88,18.88,0,0,0,28.2,22.83l103.6-69.87Z"/><path class="cls-4" d="M383.87,391.23,250.77,60.85a3.36,3.36,0,0,0-6.54,0L111.13,391.23c-7.35,18.23,15.61,33.41,29.51,19.51h0l30.12-86,73.46-184.21a3.36,3.36,0,0,1,6.55,0l73.46,184.21,30.12,86h0C368.26,424.65,391.22,409.47,383.87,391.23Z"/><path class="cls-7" d="M247.5,58.25a4.15,4.15,0,0,0-3.27,2.6L111.13,391.23c-7.35,18.23,15.61,33.41,29.51,19.51h0l30.12-86,73.46-184.21a4.15,4.15,0,0,1,3.28-2.61Z"/><path class="cls-8" d="M247.5,58.25a4.15,4.15,0,0,1,3.27,2.6l133.1,330.38c7.35,18.23-15.61,33.41-29.51,19.51h0l-30.12-86L250.78,140.53a4.15,4.15,0,0,0-3.28-2.61Z"/></g></g></g></svg>